<svg width="700" height="560" xmlns="http://www.w3.org/2000/svg" xmlns:xlink="http://www.w3.org/1999/xlink" version="1.1">
 <defs>
  <symbol id="m" overflow="visible">
   <path d="m2.0469,-0.60938c0.20703,0 0.36328,-0.07031 0.46875,-0.21875c0.11328,-0.15625 0.17188,-0.37891 0.17188,-0.67188c0,-0.28125 -0.05859,-0.49219 -0.17188,-0.64062c-0.10547,-0.15625 -0.26172,-0.23438 -0.46875,-0.23438c-0.19922,0 -0.35547,0.07813 -0.46875,0.23438c-0.10547,0.14844 -0.15625,0.35938 -0.15625,0.64062c0,0.29297 0.05078,0.51562 0.15625,0.67188c0.11328,0.14844 0.26953,0.21875 0.46875,0.21875zm-0.625,-1.9375c0.125,-0.17578 0.26562,-0.30469 0.42188,-0.39062c0.16406,-0.08203 0.35156,-0.125 0.5625,-0.125c0.36328,0 0.66406,0.14844 0.90625,0.4375c0.23828,0.29297 0.35938,0.66797 0.35938,1.125c0,0.46875 -0.12109,0.85156 -0.35938,1.1406c-0.24219,0.29297 -0.54297,0.4375 -0.90625,0.4375c-0.21094,0 -0.39844,-0.04297 -0.5625,-0.125c-0.15625,-0.08203 -0.29688,-0.21094 -0.42188,-0.39062l0,0.4375l-0.96875,0l0,-4.1562l0.96875,0l0,1.60934z" id="svg_1"/>
  </symbol>
  <symbol id="i" overflow="visible">
   <path d="m0.0625,-2.9844l0.95312,0l0.8125,2.0156l0.6875,-2.0156l0.95312,0l-1.2656,3.2656c-0.125,0.33203 -0.27344,0.56641 -0.4375,0.70312c-0.16797,0.13281 -0.39062,0.20312 -0.67188,0.20312l-0.54688,0l0,-0.64062l0.29688,0c0.16406,0 0.28516,-0.02734 0.35938,-0.07813c0.07031,-0.05468 0.12891,-0.14061 0.17188,-0.26562l0.03125,-0.09375l-1.34377,-3.09372z" id="svg_2"/>
  </symbol>
  <symbol id="n" overflow="visible">
   <path d="m2.9219,-0.71875l-1.6094,0l-0.25,0.71875l-1.0312,0l1.4688,-3.9844l1.2344,0l1.4688,3.9844l-1.0312,0l-0.2502,-0.71875zm-1.3594,-0.75l1.0938,0l-0.53125,-1.5781l-0.56255,1.5781z" id="svg_3"/>
  </symbol>
  <symbol id="h" overflow="visible">
   <path d="m2.5,-2.5469l0,-1.6094l0.95312,0l0,4.1562l-0.95312,0l0,-0.4375c-0.13672,0.17969 -0.28125,0.30859 -0.4375,0.39062c-0.15625,0.08203 -0.33984,0.125 -0.54688,0.125c-0.375,0 -0.68359,-0.14453 -0.92188,-0.4375c-0.23047,-0.28906 -0.34375,-0.67188 -0.34375,-1.1406c0,-0.45703 0.11328,-0.83203 0.34375,-1.125c0.23828,-0.28906 0.54688,-0.4375 0.92188,-0.4375c0.19531,0 0.375,0.04297 0.53125,0.125c0.16406,0.08594 0.31641,0.21484 0.45312,0.39062l0.00001,0.00006zm-0.64062,1.9375c0.20703,0 0.36328,-0.07031 0.46875,-0.21875c0.11328,-0.15625 0.17188,-0.37891 0.17188,-0.67188c0,-0.28125 -0.05859,-0.49219 -0.17188,-0.64062c-0.10547,-0.15625 -0.26172,-0.23438 -0.46875,-0.23438c-0.19922,0 -0.35547,0.07813 -0.46875,0.23438c-0.10547,0.14844 -0.15625,0.35938 -0.15625,0.64062c0,0.29297 0.05078,0.51562 0.15625,0.67188c0.11328,0.14844 0.26953,0.21875 0.46875,0.21875z" id="svg_4"/>
  </symbol>
  <symbol id="d" overflow="visible">
   <path d="m3.4375,-1.5l0,0.26562l-2.2344,0c0.03125,0.23047 0.11328,0.40234 0.25,0.51562c0.13281,0.10547 0.32812,0.15625 0.57812,0.15625c0.20703,0 0.41406,-0.02344 0.625,-0.07812c0.20703,-0.0625 0.42188,-0.15625 0.64062,-0.28125l0,0.73437c-0.21875,0.09375 -0.44531,0.16406 -0.67188,0.20312c-0.23047,0.03907 -0.45312,0.0625 -0.67188,0.0625c-0.54297,0 -0.96484,-0.13281 -1.2656,-0.40625c-0.30469,-0.28125 -0.45312,-0.67187 -0.45312,-1.1719c0,-0.47656 0.14453,-0.85938 0.4375,-1.1406c0.30078,-0.28125 0.70703,-0.42188 1.2188,-0.42188c0.46875,0 0.84375,0.14062 1.125,0.42188s0.42188,0.66406 0.42188,1.1406l-0.00004,0.00004zm-0.96875,-0.32812c0,-0.17578 -0.05859,-0.31641 -0.17188,-0.42188c-0.10547,-0.11328 -0.24219,-0.17188 -0.40625,-0.17188c-0.1875,0 -0.33984,0.05469 -0.45312,0.15625c-0.11719,0.10547 -0.1875,0.25 -0.21875,0.4375l1.25,0.00001z" id="svg_5"/>
  </symbol>
  <symbol id="a" overflow="visible">
   <path d="m0.45312,-4.1562l0.96875,0l0,4.1562l-0.96875,0l0,-4.1562z" id="svg_6"/>
  </symbol>
  <symbol id="b" overflow="visible">
   <path d="m1.7969,-1.3438c-0.19922,0 -0.35156,0.03906 -0.45312,0.10938c-0.09375,0.0625 -0.14062,0.16406 -0.14062,0.29688c0,0.11719 0.03516,0.21094 0.10938,0.28125c0.08203,0.0625 0.19531,0.09375 0.34375,0.09375c0.17578,0 0.32812,-0.0625 0.45312,-0.1875s0.1875,-0.28516 0.1875,-0.48438l0,-0.10938l-0.50001,0zm1.4688,-0.35938l0,1.7031l-0.96875,0l0,-0.4375c-0.125,0.17969 -0.27344,0.30859 -0.4375,0.39062c-0.15625,0.08203 -0.35156,0.125 -0.57812,0.125c-0.3125,0 -0.57031,-0.08594 -0.76562,-0.26562c-0.1875,-0.1875 -0.28125,-0.42188 -0.28125,-0.70312c0,-0.35156 0.11719,-0.61328 0.35938,-0.78125c0.23828,-0.16406 0.61719,-0.25 1.1406,-0.25l0.5625,0l0,-0.0625c0,-0.15625 -0.0625,-0.26562 -0.1875,-0.32812c-0.11719,-0.07031 -0.29688,-0.10938 -0.54688,-0.10938c-0.21094,0 -0.40234,0.02344 -0.57812,0.0625c-0.17969,0.04297 -0.33984,0.10156 -0.48438,0.17188l0,-0.71875c0.19531,-0.05078 0.39844,-0.08594 0.60938,-0.10938c0.20703,-0.03125 0.41406,-0.04687 0.625,-0.04687c0.53906,0 0.92969,0.10937 1.1719,0.32812c0.23828,0.21094 0.35938,0.55469 0.35938,1.0312l-0.00002,0.00007z" id="svg_7"/>
  </symbol>
  <symbol id="c" overflow="visible">
   <path d="m3.4688,-1.8281l0,1.8281l-0.96875,0l0,-1.3906c0,-0.25781 -0.00781,-0.4375 -0.01563,-0.53125c-0.01171,-0.10156 -0.03125,-0.17578 -0.0625,-0.21875c-0.03125,-0.0625 -0.08593,-0.10938 -0.15625,-0.14062c-0.0625,-0.03906 -0.13281,-0.0625 -0.20312,-0.0625c-0.21094,0 -0.37109,0.07812 -0.48438,0.23438c-0.10547,0.15625 -0.15625,0.37109 -0.15625,0.64062l0,1.4688l-0.96875,0l0,-4.1562l0.96875,0l0,1.6094c0.13281,-0.17578 0.28516,-0.30469 0.45312,-0.39062c0.16406,-0.08203 0.34375,-0.125 0.53125,-0.125c0.34375,0 0.60156,0.10938 0.78125,0.32812c0.1875,0.21094 0.28125,0.51172 0.28125,0.90625l0.00001,-0.00013z" id="svg_8"/>
  </symbol>
  <symbol id="g" overflow="visible">
   <path d="m0.5,-3.9844l2.7812,0l0,0.78125l-1.75,0l0,0.73438l1.6406,0l0,0.78125l-1.6406,0l0,0.90625l1.7969,0l0,0.78125l-2.8281,0l0,-3.98438z" id="svg_9"/>
  </symbol>
  <symbol id="w" overflow="visible">
   <path d="m0.5,-3.9844l2.7812,0l0,0.78125l-1.75,0l0,0.73438l1.6406,0l0,0.78125l-1.6406,0l0,1.6875l-1.0312,0l0,-3.98438z" id="svg_10"/>
  </symbol>
  <symbol id="v" overflow="visible">
   <path d="m2.4375,0.07813l-0.07812,0c-0.65625,0 -1.1719,-0.17969 -1.5469,-0.54689c-0.36719,-0.36328 -0.54688,-0.86719 -0.54688,-1.5156c0,-0.64452 0.17969,-1.1484 0.54688,-1.51559c0.36328,-0.375 0.86719,-0.5625 1.5156,-0.5625c0.64453,0 1.14449,0.18359 1.5,0.54687c0.36327,0.36719 0.54687,0.875 0.54687,1.5312c0,0.44922 -0.10156,0.83595 -0.29687,1.15621c-0.1875,0.32422 -0.46094,0.57031 -0.8125,0.73438l0.79687,0.89062l-0.98437,0l-0.64058,-0.7187zm-0.10938,-3.39061c-0.3125,0 -0.55859,0.11719 -0.73438,0.34375c-0.17969,0.23047 -0.26562,0.5586 -0.26562,0.98438c0,0.42969 0.08203,0.75781 0.25,0.98438c0.17578,0.21875 0.42578,0.32812 0.75,0.32812c0.3125,0 0.55078,-0.11328 0.71875,-0.34375c0.17578,-0.22656 0.26562,-0.55078 0.26562,-0.96875c0,-0.42578 -0.08984,-0.75391 -0.26562,-0.98438c-0.16797,-0.22656 -0.40625,-0.34375 -0.71875,-0.34375z" id="svg_11"/>
  </symbol>
  <symbol id="l" overflow="visible">
   <path d="m0.42188,-1.1719l0,-1.8125l0.96875,0l0,0.29688l0,0.60938l0,0.48438c0,0.24219 0.00391,0.41797 0.01563,0.53125c0.00781,0.10547 0.03125,0.17969 0.0625,0.21875c0.03906,0.0625 0.09375,0.11719 0.15625,0.15625c0.0625,0.03125 0.13281,0.04688 0.21875,0.04688c0.1953,0 0.35155,-0.07813 0.46874,-0.23438c0.11328,-0.15625 0.17188,-0.36719 0.17188,-0.64063l0,-1.4688l0.95312,0l0,2.9844l-0.95312,0l0,-0.4375c-0.14844,0.17969 -0.30469,0.30859 -0.46875,0.39062c-0.15625,0.08204 -0.33594,0.125 -0.53125,0.125c-0.34375,0 -0.60938,-0.10156 -0.79688,-0.3125c-0.17969,-0.21875 -0.26562,-0.53125 -0.26562,-0.9375l0,0.00002z" id="svg_12"/>
  </symbol>
  <symbol id="k" overflow="visible">
   <path d="m3.2344,-2.5c0.11328,-0.17578 0.25391,-0.3125 0.42188,-0.40625c0.16406,-0.10156 0.35156,-0.15625 0.5625,-0.15625c0.33203,0 0.58594,0.10938 0.76562,0.32812c0.1875,0.21094 0.28125,0.51172 0.28125,0.90625l0,1.8281l-0.96875,0l0,-1.5625c0.00781,-0.01953 0.01563,-0.03906 0.01563,-0.0625l0,-0.10938c0,-0.21875 -0.03125,-0.375 -0.09375,-0.46875s-0.16406,-0.14062 -0.29688,-0.14062c-0.1875,0 -0.33594,0.07813 -0.4375,0.23438c-0.09375,0.14844 -0.14062,0.35938 -0.14062,0.64062l0,1.4688l-0.96875,0l0,-1.5625c0,-0.33203 -0.03125,-0.54688 -0.09375,-0.64062c-0.05469,-0.09375 -0.15234,-0.14062 -0.29688,-0.14062c-0.17969,0 -0.32031,0.07813 -0.42188,0.23438c-0.09375,0.14844 -0.14062,0.35938 -0.14062,0.64062l0,1.4688l-0.96875,0l0,-2.9844l0.96875,0l0,0.4375c0.11328,-0.17578 0.24219,-0.30469 0.39062,-0.39062c0.15625,-0.08203 0.32812,-0.125 0.51562,-0.125c0.20703,0 0.39062,0.05469 0.54688,0.15625c0.15625,0.09375 0.27344,0.23047 0.35938,0.40625l0,-0.00006z" id="svg_13"/>
  </symbol>
  <symbol id="u" overflow="visible">
   <path d="m0.45312,-2.9844l0.96875,0l0,2.9844l-0.96875,0l0,-2.9844zm0,-1.1719l0.96875,0l0,0.78125l-0.96875,0l0,-0.78125z" id="svg_14"/>
  </symbol>
  <symbol id="f" overflow="visible">
   <path d="m2.6875,-2.1719c-0.08594,-0.03906 -0.16797,-0.07031 -0.25,-0.09375c-0.08594,-0.01953 -0.16797,-0.03125 -0.25,-0.03125c-0.25,0 -0.44531,0.08594 -0.57812,0.25c-0.125,0.15625 -0.1875,0.38281 -0.1875,0.67188l0,1.375l-0.96875,0l0,-2.9844l0.96875,0l0,0.48438c0.11328,-0.19531 0.25,-0.33594 0.40625,-0.42188c0.16406,-0.09375 0.35938,-0.14062 0.57812,-0.14062l0.10938,0c0.03906,0 0.09375,0.00781 0.15625,0.01562l0.01562,0.87502z" id="svg_15"/>
  </symbol>
  <symbol id="t" overflow="visible">
   <path d="m2.4219,-4.1562l0,0.625l-0.51562,0c-0.13672,0 -0.23438,0.02734 -0.29688,0.07812c-0.05469,0.05469 -0.07813,0.13672 -0.07813,0.25l0,0.21875l0.82812,0l0,0.67188l-0.82812,0l0,2.3125l-0.95312,0l0,-2.3125l-0.46875,0l0,-0.67188l0.46875,0l0,-0.21875c0,-0.32031 0.08594,-0.5625 0.26562,-0.71875c0.1875,-0.15625 0.47266,-0.23437 0.85938,-0.23437l0.71875,0z" id="svg_16"/>
  </symbol>
  <symbol id="e" overflow="visible">
   <path d="m1.875,-2.375c-0.21094,0 -0.37109,0.07812 -0.48438,0.23438c-0.10547,0.14844 -0.15625,0.35938 -0.15625,0.64062c0,0.29297 0.05078,0.51562 0.15625,0.67188c0.11328,0.14844 0.27344,0.21875 0.48438,0.21875c0.20703,0 0.36719,-0.07031 0.48438,-0.21875c0.11328,-0.15625 0.17188,-0.37891 0.17188,-0.67188c0,-0.28125 -0.05859,-0.49219 -0.17188,-0.64062c-0.11719,-0.15625 -0.27734,-0.23438 -0.48438,-0.23438zm0,-0.6875c0.51953,0 0.92188,0.14062 1.2031,0.42188c0.28906,0.27344 0.4375,0.65234 0.4375,1.1406c0,0.5 -0.14844,0.89062 -0.4375,1.1719c-0.28125,0.27344 -0.68359,0.40625 -1.2031,0.40625c-0.51172,0 -0.91406,-0.13281 -1.2031,-0.40625c-0.29297,-0.28125 -0.4375,-0.67188 -0.4375,-1.1719c0,-0.48828 0.14453,-0.86719 0.4375,-1.1406c0.28906,-0.28125 0.69141,-0.42188 1.2031,-0.42188z" id="svg_17"/>
  </symbol>
  <symbol id="j" overflow="visible">
   <path d="m1.5,-3.8438l0,0.85938l0.98438,0l0,0.67188l-0.98438,0l0,1.2812c0,0.13672 0.02344,0.23047 0.07813,0.28125c0.0625,0.04297 0.17578,0.0625 0.34375,0.0625l0.48438,0l0,0.6875l-0.8125,0c-0.38672,0 -0.65625,-0.07813 -0.8125,-0.23438s-0.23438,-0.42188 -0.23438,-0.79688l0,-1.2812l-0.46875,0l0,-0.67188l0.46875,0l0,-0.85938l0.95312,0.00001z" id="svg_18"/>
  </symbol>
  <symbol id="s" overflow="visible">
   <path d="m0.5,-3.9844l1.1562,0l1.4375,2.7344l0,-2.7344l0.98438,0l0,3.9844l-1.1562,0l-1.4375,-2.7344l0,2.7344l-0.98438,0l0,-3.9844z" id="svg_19"/>
  </symbol>
  <symbol id="r" overflow="visible">
   <path d="m3.4688,-1.8281l0,1.8281l-0.96875,0l0,-1.3906c0,-0.25781 -0.00781,-0.4375 -0.01563,-0.53125c-0.01171,-0.10156 -0.03125,-0.17578 -0.0625,-0.21875c-0.03125,-0.0625 -0.08593,-0.10938 -0.15625,-0.14062c-0.0625,-0.03906 -0.13281,-0.0625 -0.20312,-0.0625c-0.21094,0 -0.37109,0.07812 -0.48438,0.23438c-0.10547,0.15625 -0.15625,0.37109 -0.15625,0.64062l0,1.4688l-0.96875,0l0,-2.9844l0.96875,0l0,0.4375c0.13281,-0.17578 0.28516,-0.30469 0.45312,-0.39062c0.16406,-0.08203 0.34375,-0.125 0.53125,-0.125c0.34375,0 0.60156,0.10938 0.78125,0.32812c0.1875,0.21094 0.28125,0.51172 0.28125,0.90625l0.00001,-0.00003z" id="svg_20"/>
  </symbol>
  <symbol id="q" overflow="visible">
   <path d="m0.5,-3.9844l1.7031,0c0.50781,0 0.89844,0.11719 1.1719,0.34375c0.26953,0.21875 0.40625,0.53906 0.40625,0.95312c0,0.41797 -0.13672,0.74219 -0.40625,0.96875c-0.27344,0.21875 -0.66406,0.32812 -1.1719,0.32812l-0.67188,0l0,1.3906l-1.0312,0l-0.00002,-3.98434zm1.0312,0.75l0,1.1094l0.5625,0c0.19531,0 0.34766,-0.04688 0.45312,-0.14062c0.11328,-0.10156 0.17188,-0.24219 0.17188,-0.42188c0,-0.17578 -0.05859,-0.3125 -0.17188,-0.40625c-0.10547,-0.09375 -0.25781,-0.14062 -0.45312,-0.14062l-0.5625,-0.00003z" id="svg_21"/>
  </symbol>
  <symbol id="p" overflow="visible">
   <path d="m0.45312,-2.9844l0.96875,0l0,2.9375c0,0.39453 -0.10156,0.69531 -0.29688,0.90625c-0.1875,0.21875 -0.46484,0.32812 -0.82812,0.32812l-0.48438,0l0,-0.64062l0.17188,0c0.17578,0 0.29688,-0.04297 0.35938,-0.125c0.07031,-0.07422 0.10938,-0.23047 0.10938,-0.46875l-0.00001,-2.9375zm0,-1.1719l0.96875,0l0,0.78125l-0.96875,0l0,-0.78125z" id="svg_22"/>
  </symbol>
  <symbol id="o" overflow="visible">
   <path d="m2.875,-2.8906l0,0.76562c-0.125,-0.08203 -0.25781,-0.14453 -0.39062,-0.1875c-0.13672,-0.03906 -0.27344,-0.0625 -0.40625,-0.0625c-0.27344,0 -0.48047,0.07813 -0.625,0.23438c-0.14844,0.15625 -0.21875,0.37109 -0.21875,0.64062c0,0.28125 0.07031,0.5 0.21875,0.65625c0.14453,0.15625 0.35156,0.23438 0.625,0.23438c0.14453,0 0.28516,-0.01953 0.42188,-0.0625c0.13281,-0.03906 0.25781,-0.10938 0.375,-0.20312l0,0.78125c-0.14844,0.0625 -0.29688,0.10156 -0.45312,0.125c-0.15625,0.03125 -0.3125,0.04688 -0.46875,0.04688c-0.54297,0 -0.96484,-0.13281 -1.2656,-0.40625c-0.30469,-0.28125 -0.45312,-0.67188 -0.45312,-1.1719c0,-0.48828 0.14844,-0.8672 0.45312,-1.1406c0.30078,-0.28125 0.72266,-0.42189 1.2656,-0.42189c0.15625,0 0.3125,0.01563 0.46875,0.04688c0.15625,0.02344 0.30469,0.0625 0.45312,0.125l-0.00001,0z" id="svg_23"/>
  </symbol>
 </defs>
 <g>
  <title>Layer 1</title>
  <g id="svg_24">
   <path fill="#00b55d" d="m350,1.0938c-154.04,0 -278.91,124.87 -278.91,278.91s124.87,278.91 278.91,278.91s278.91,-124.87 278.91,-278.91s-124.87,-278.91 -278.91,-278.91zm136.5,239.57l-142.61,129.1c-3.4961,3.168 -7.5703,5.3008 -11.84,6.418c-3.6797,1.6406 -7.6289,2.4883 -11.594,2.4883c-7.0547,0 -14.121,-2.6016 -19.645,-7.8398l-87.805,-83.348c-11.43,-10.852 -11.898,-28.91 -1.0469,-40.34c10.84,-11.43 28.906,-11.902 40.34,-1.0508l69.887,66.34l126,-114.08c11.68,-10.578 29.727,-9.6836 40.301,2c10.582,11.684 9.6875,29.73 -1.9883,40.312l0.0012,0.0003z" id="svg_25"/>
   <use fill="#00b55d" x="70" y="576.40625" xlink:href="#m" id="svg_26"/>
   <use fill="#00b55d" x="73.91406" y="576.40625" xlink:href="#i" id="svg_27"/>
   <use fill="#00b55d" x="79.38281" y="576.40625" xlink:href="#n" id="svg_28"/>
   <use fill="#00b55d" x="83.61719" y="576.40625" xlink:href="#m" id="svg_29"/>
   <use fill="#00b55d" x="87.53125" y="576.40625" xlink:href="#h" id="svg_30"/>
   <use fill="#00b55d" x="91.44531" y="576.40625" xlink:href="#d" id="svg_31"/>
   <use fill="#00b55d" x="95.15234" y="576.40625" xlink:href="#a" id="svg_32"/>
   <use fill="#00b55d" x="97.02734" y="576.40625" xlink:href="#a" id="svg_33"/>
   <use fill="#00b55d" x="98.90234" y="576.40625" xlink:href="#b" id="svg_34"/>
   <use fill="#00b55d" x="102.59375" y="576.40625" xlink:href="#c" id="svg_35"/>
   <use fill="#00b55d" x="108.39063" y="576.40625" xlink:href="#g" id="svg_36"/>
   <use fill="#00b55d" x="112.125" y="576.40625" xlink:href="#a" id="svg_37"/>
   <use fill="#00b55d" x="115.90625" y="576.40625" xlink:href="#w" id="svg_38"/>
   <use fill="#00b55d" x="119.64063" y="576.40625" xlink:href="#b" id="svg_39"/>
   <use fill="#00b55d" x="123.33203" y="576.40625" xlink:href="#a" id="svg_40"/>
   <use fill="#00b55d" x="125.20703" y="576.40625" xlink:href="#b" id="svg_41"/>
   <use fill="#00b55d" x="128.89453" y="576.40625" xlink:href="#c" id="svg_42"/>
   <use fill="#00b55d" x="134.69141" y="576.40625" xlink:href="#g" id="svg_43"/>
   <use fill="#00b55d" x="138.42969" y="576.40625" xlink:href="#a" id="svg_44"/>
   <use fill="#00b55d" x="142.20703" y="576.40625" xlink:href="#v" id="svg_45"/>
   <use fill="#00b55d" x="146.85547" y="576.40625" xlink:href="#l" id="svg_46"/>
   <use fill="#00b55d" x="150.75" y="576.40625" xlink:href="#b" id="svg_47"/>
   <use fill="#00b55d" x="154.44141" y="576.40625" xlink:href="#h" id="svg_48"/>
   <use fill="#00b55d" x="158.35547" y="576.40625" xlink:href="#k" id="svg_49"/>
   <use fill="#00b55d" x="164.05469" y="576.40625" xlink:href="#u" id="svg_50"/>
   <use fill="#00b55d" x="165.92578" y="576.40625" xlink:href="#f" id="svg_51"/>
   <use fill="#00b55d" x="168.625" y="576.40625" xlink:href="#i" id="svg_52"/>
   <use fill="#00b55d" x="70" y="581.875" xlink:href="#t" id="svg_53"/>
   <use fill="#00b55d" x="72.37891" y="581.875" xlink:href="#f" id="svg_54"/>
   <use fill="#00b55d" x="75.07813" y="581.875" xlink:href="#e" id="svg_55"/>
   <use fill="#00b55d" x="78.83203" y="581.875" xlink:href="#k" id="svg_56"/>
   <use fill="#00b55d" x="86.4375" y="581.875" xlink:href="#j" id="svg_57"/>
   <use fill="#00b55d" x="89.05078" y="581.875" xlink:href="#c" id="svg_58"/>
   <use fill="#00b55d" x="92.94141" y="581.875" xlink:href="#d" id="svg_59"/>
   <use fill="#00b55d" x="98.55469" y="581.875" xlink:href="#s" id="svg_60"/>
   <use fill="#00b55d" x="103.13281" y="581.875" xlink:href="#e" id="svg_61"/>
   <use fill="#00b55d" x="106.89063" y="581.875" xlink:href="#l" id="svg_62"/>
   <use fill="#00b55d" x="110.78516" y="581.875" xlink:href="#r" id="svg_63"/>
   <use fill="#00b55d" x="116.58203" y="581.875" xlink:href="#q" id="svg_64"/>
   <use fill="#00b55d" x="120.58984" y="581.875" xlink:href="#f" id="svg_65"/>
   <use fill="#00b55d" x="123.28516" y="581.875" xlink:href="#e" id="svg_66"/>
   <use fill="#00b55d" x="127.04297" y="581.875" xlink:href="#p" id="svg_67"/>
   <use fill="#00b55d" x="128.91797" y="581.875" xlink:href="#d" id="svg_68"/>
   <use fill="#00b55d" x="132.625" y="581.875" xlink:href="#o" id="svg_69"/>
   <use fill="#00b55d" x="135.86719" y="581.875" xlink:href="#j" id="svg_70"/>
  </g>
 </g>
</svg>