<svg width="700" height="560" xmlns="http://www.w3.org/2000/svg" xmlns:xlink="http://www.w3.org/1999/xlink" version="1.1">
 <defs>
  <symbol overflow="visible" id="m">
   <path id="svg_1" d="m2.0469,-0.60938c0.20703,0 0.36328,-0.07031 0.46875,-0.21875c0.11328,-0.15625 0.17188,-0.37891 0.17188,-0.67188c0,-0.28125 -0.05859,-0.49219 -0.17188,-0.64062c-0.10547,-0.15625 -0.26172,-0.23438 -0.46875,-0.23438c-0.19922,0 -0.35547,0.07813 -0.46875,0.23438c-0.10547,0.14844 -0.15625,0.35938 -0.15625,0.64062c0,0.29297 0.05078,0.51562 0.15625,0.67188c0.11328,0.14844 0.26953,0.21875 0.46875,0.21875zm-0.625,-1.9375c0.125,-0.17578 0.26562,-0.30469 0.42188,-0.39062c0.16406,-0.08203 0.35156,-0.125 0.5625,-0.125c0.36328,0 0.66406,0.14844 0.90625,0.4375c0.23828,0.29297 0.35938,0.66797 0.35938,1.125c0,0.46875 -0.12109,0.85156 -0.35938,1.1406c-0.24219,0.29297 -0.54297,0.4375 -0.90625,0.4375c-0.21094,0 -0.39844,-0.04297 -0.5625,-0.125c-0.15625,-0.08203 -0.29688,-0.21094 -0.42188,-0.39062l0,0.4375l-0.96875,0l0,-4.1562l0.96875,0l0,1.60934z"/>
  </symbol>
  <symbol overflow="visible" id="i">
   <path id="svg_2" d="m0.0625,-2.9844l0.95312,0l0.8125,2.0156l0.6875,-2.0156l0.95312,0l-1.2656,3.2656c-0.125,0.33203 -0.27344,0.56641 -0.4375,0.70312c-0.16797,0.13281 -0.39062,0.20312 -0.67188,0.20312l-0.54688,0l0,-0.64062l0.29688,0c0.16406,0 0.28516,-0.02734 0.35938,-0.07813c0.07031,-0.05468 0.12891,-0.14061 0.17188,-0.26562l0.03125,-0.09375l-1.34377,-3.09372z"/>
  </symbol>
  <symbol overflow="visible" id="n">
   <path id="svg_3" d="m2.9219,-0.71875l-1.6094,0l-0.25,0.71875l-1.0312,0l1.4688,-3.9844l1.2344,0l1.4688,3.9844l-1.0312,0l-0.2502,-0.71875zm-1.3594,-0.75l1.0938,0l-0.53125,-1.5781l-0.56255,1.5781z"/>
  </symbol>
  <symbol overflow="visible" id="h">
   <path id="svg_4" d="m2.5,-2.5469l0,-1.6094l0.95312,0l0,4.1562l-0.95312,0l0,-0.4375c-0.13672,0.17969 -0.28125,0.30859 -0.4375,0.39062c-0.15625,0.08203 -0.33984,0.125 -0.54688,0.125c-0.375,0 -0.68359,-0.14453 -0.92188,-0.4375c-0.23047,-0.28906 -0.34375,-0.67188 -0.34375,-1.1406c0,-0.45703 0.11328,-0.83203 0.34375,-1.125c0.23828,-0.28906 0.54688,-0.4375 0.92188,-0.4375c0.19531,0 0.375,0.04297 0.53125,0.125c0.16406,0.08594 0.31641,0.21484 0.45312,0.39062l0.00001,0.00006zm-0.64062,1.9375c0.20703,0 0.36328,-0.07031 0.46875,-0.21875c0.11328,-0.15625 0.17188,-0.37891 0.17188,-0.67188c0,-0.28125 -0.05859,-0.49219 -0.17188,-0.64062c-0.10547,-0.15625 -0.26172,-0.23438 -0.46875,-0.23438c-0.19922,0 -0.35547,0.07813 -0.46875,0.23438c-0.10547,0.14844 -0.15625,0.35938 -0.15625,0.64062c0,0.29297 0.05078,0.51562 0.15625,0.67188c0.11328,0.14844 0.26953,0.21875 0.46875,0.21875z"/>
  </symbol>
  <symbol overflow="visible" id="d">
   <path id="svg_5" d="m3.4375,-1.5l0,0.26562l-2.2344,0c0.03125,0.23047 0.11328,0.40234 0.25,0.51562c0.13281,0.10547 0.32812,0.15625 0.57812,0.15625c0.20703,0 0.41406,-0.02344 0.625,-0.07812c0.20703,-0.0625 0.42188,-0.15625 0.64062,-0.28125l0,0.73437c-0.21875,0.09375 -0.44531,0.16406 -0.67188,0.20312c-0.23047,0.03907 -0.45312,0.0625 -0.67188,0.0625c-0.54297,0 -0.96484,-0.13281 -1.2656,-0.40625c-0.30469,-0.28125 -0.45312,-0.67187 -0.45312,-1.1719c0,-0.47656 0.14453,-0.85938 0.4375,-1.1406c0.30078,-0.28125 0.70703,-0.42188 1.2188,-0.42188c0.46875,0 0.84375,0.14062 1.125,0.42188s0.42188,0.66406 0.42188,1.1406l-0.00004,0.00004zm-0.96875,-0.32812c0,-0.17578 -0.05859,-0.31641 -0.17188,-0.42188c-0.10547,-0.11328 -0.24219,-0.17188 -0.40625,-0.17188c-0.1875,0 -0.33984,0.05469 -0.45312,0.15625c-0.11719,0.10547 -0.1875,0.25 -0.21875,0.4375l1.25,0.00001z"/>
  </symbol>
  <symbol overflow="visible" id="a">
   <path id="svg_6" d="m0.45312,-4.1562l0.96875,0l0,4.1562l-0.96875,0l0,-4.1562z"/>
  </symbol>
  <symbol overflow="visible" id="b">
   <path id="svg_7" d="m1.7969,-1.3438c-0.19922,0 -0.35156,0.03906 -0.45312,0.10938c-0.09375,0.0625 -0.14062,0.16406 -0.14062,0.29688c0,0.11719 0.03516,0.21094 0.10938,0.28125c0.08203,0.0625 0.19531,0.09375 0.34375,0.09375c0.17578,0 0.32812,-0.0625 0.45312,-0.1875s0.1875,-0.28516 0.1875,-0.48438l0,-0.10938l-0.50001,0zm1.4688,-0.35938l0,1.7031l-0.96875,0l0,-0.4375c-0.125,0.17969 -0.27344,0.30859 -0.4375,0.39062c-0.15625,0.08203 -0.35156,0.125 -0.57812,0.125c-0.3125,0 -0.57031,-0.08594 -0.76562,-0.26562c-0.1875,-0.1875 -0.28125,-0.42188 -0.28125,-0.70312c0,-0.35156 0.11719,-0.61328 0.35938,-0.78125c0.23828,-0.16406 0.61719,-0.25 1.1406,-0.25l0.5625,0l0,-0.0625c0,-0.15625 -0.0625,-0.26562 -0.1875,-0.32812c-0.11719,-0.07031 -0.29688,-0.10938 -0.54688,-0.10938c-0.21094,0 -0.40234,0.02344 -0.57812,0.0625c-0.17969,0.04297 -0.33984,0.10156 -0.48438,0.17188l0,-0.71875c0.19531,-0.05078 0.39844,-0.08594 0.60938,-0.10938c0.20703,-0.03125 0.41406,-0.04687 0.625,-0.04687c0.53906,0 0.92969,0.10937 1.1719,0.32812c0.23828,0.21094 0.35938,0.55469 0.35938,1.0312l-0.00002,0.00007z"/>
  </symbol>
  <symbol overflow="visible" id="c">
   <path id="svg_8" d="m3.4688,-1.8281l0,1.8281l-0.96875,0l0,-1.3906c0,-0.25781 -0.00781,-0.4375 -0.01563,-0.53125c-0.01171,-0.10156 -0.03125,-0.17578 -0.0625,-0.21875c-0.03125,-0.0625 -0.08593,-0.10938 -0.15625,-0.14062c-0.0625,-0.03906 -0.13281,-0.0625 -0.20312,-0.0625c-0.21094,0 -0.37109,0.07812 -0.48438,0.23438c-0.10547,0.15625 -0.15625,0.37109 -0.15625,0.64062l0,1.4688l-0.96875,0l0,-4.1562l0.96875,0l0,1.6094c0.13281,-0.17578 0.28516,-0.30469 0.45312,-0.39062c0.16406,-0.08203 0.34375,-0.125 0.53125,-0.125c0.34375,0 0.60156,0.10938 0.78125,0.32812c0.1875,0.21094 0.28125,0.51172 0.28125,0.90625l0.00001,-0.00013z"/>
  </symbol>
  <symbol overflow="visible" id="g">
   <path id="svg_9" d="m0.5,-3.9844l2.7812,0l0,0.78125l-1.75,0l0,0.73438l1.6406,0l0,0.78125l-1.6406,0l0,0.90625l1.7969,0l0,0.78125l-2.8281,0l0,-3.98438z"/>
  </symbol>
  <symbol overflow="visible" id="w">
   <path id="svg_10" d="m0.5,-3.9844l2.7812,0l0,0.78125l-1.75,0l0,0.73438l1.6406,0l0,0.78125l-1.6406,0l0,1.6875l-1.0312,0l0,-3.98438z"/>
  </symbol>
  <symbol overflow="visible" id="v">
   <path id="svg_11" d="m2.4375,0.07813l-0.07812,0c-0.65625,0 -1.1719,-0.17969 -1.5469,-0.54689c-0.36719,-0.36328 -0.54688,-0.86719 -0.54688,-1.5156c0,-0.64452 0.17969,-1.1484 0.54688,-1.51559c0.36328,-0.375 0.86719,-0.5625 1.5156,-0.5625c0.64453,0 1.14449,0.18359 1.5,0.54687c0.36327,0.36719 0.54687,0.875 0.54687,1.5312c0,0.44922 -0.10156,0.83595 -0.29687,1.15621c-0.1875,0.32422 -0.46094,0.57031 -0.8125,0.73438l0.79687,0.89062l-0.98437,0l-0.64058,-0.7187zm-0.10938,-3.39061c-0.3125,0 -0.55859,0.11719 -0.73438,0.34375c-0.17969,0.23047 -0.26562,0.5586 -0.26562,0.98438c0,0.42969 0.08203,0.75781 0.25,0.98438c0.17578,0.21875 0.42578,0.32812 0.75,0.32812c0.3125,0 0.55078,-0.11328 0.71875,-0.34375c0.17578,-0.22656 0.26562,-0.55078 0.26562,-0.96875c0,-0.42578 -0.08984,-0.75391 -0.26562,-0.98438c-0.16797,-0.22656 -0.40625,-0.34375 -0.71875,-0.34375z"/>
  </symbol>
  <symbol overflow="visible" id="l">
   <path id="svg_12" d="m0.42188,-1.1719l0,-1.8125l0.96875,0l0,0.29688l0,0.60938l0,0.48438c0,0.24219 0.00391,0.41797 0.01563,0.53125c0.00781,0.10547 0.03125,0.17969 0.0625,0.21875c0.03906,0.0625 0.09375,0.11719 0.15625,0.15625c0.0625,0.03125 0.13281,0.04688 0.21875,0.04688c0.1953,0 0.35155,-0.07813 0.46874,-0.23438c0.11328,-0.15625 0.17188,-0.36719 0.17188,-0.64063l0,-1.4688l0.95312,0l0,2.9844l-0.95312,0l0,-0.4375c-0.14844,0.17969 -0.30469,0.30859 -0.46875,0.39062c-0.15625,0.08204 -0.33594,0.125 -0.53125,0.125c-0.34375,0 -0.60938,-0.10156 -0.79688,-0.3125c-0.17969,-0.21875 -0.26562,-0.53125 -0.26562,-0.9375l0,0.00002z"/>
  </symbol>
  <symbol overflow="visible" id="k">
   <path id="svg_13" d="m3.2344,-2.5c0.11328,-0.17578 0.25391,-0.3125 0.42188,-0.40625c0.16406,-0.10156 0.35156,-0.15625 0.5625,-0.15625c0.33203,0 0.58594,0.10938 0.76562,0.32812c0.1875,0.21094 0.28125,0.51172 0.28125,0.90625l0,1.8281l-0.96875,0l0,-1.5625c0.00781,-0.01953 0.01563,-0.03906 0.01563,-0.0625l0,-0.10938c0,-0.21875 -0.03125,-0.375 -0.09375,-0.46875s-0.16406,-0.14062 -0.29688,-0.14062c-0.1875,0 -0.33594,0.07813 -0.4375,0.23438c-0.09375,0.14844 -0.14062,0.35938 -0.14062,0.64062l0,1.4688l-0.96875,0l0,-1.5625c0,-0.33203 -0.03125,-0.54688 -0.09375,-0.64062c-0.05469,-0.09375 -0.15234,-0.14062 -0.29688,-0.14062c-0.17969,0 -0.32031,0.07813 -0.42188,0.23438c-0.09375,0.14844 -0.14062,0.35938 -0.14062,0.64062l0,1.4688l-0.96875,0l0,-2.9844l0.96875,0l0,0.4375c0.11328,-0.17578 0.24219,-0.30469 0.39062,-0.39062c0.15625,-0.08203 0.32812,-0.125 0.51562,-0.125c0.20703,0 0.39062,0.05469 0.54688,0.15625c0.15625,0.09375 0.27344,0.23047 0.35938,0.40625l0,-0.00006z"/>
  </symbol>
  <symbol overflow="visible" id="u">
   <path id="svg_14" d="m0.45312,-2.9844l0.96875,0l0,2.9844l-0.96875,0l0,-2.9844zm0,-1.1719l0.96875,0l0,0.78125l-0.96875,0l0,-0.78125z"/>
  </symbol>
  <symbol overflow="visible" id="f">
   <path id="svg_15" d="m2.6875,-2.1719c-0.08594,-0.03906 -0.16797,-0.07031 -0.25,-0.09375c-0.08594,-0.01953 -0.16797,-0.03125 -0.25,-0.03125c-0.25,0 -0.44531,0.08594 -0.57812,0.25c-0.125,0.15625 -0.1875,0.38281 -0.1875,0.67188l0,1.375l-0.96875,0l0,-2.9844l0.96875,0l0,0.48438c0.11328,-0.19531 0.25,-0.33594 0.40625,-0.42188c0.16406,-0.09375 0.35938,-0.14062 0.57812,-0.14062l0.10938,0c0.03906,0 0.09375,0.00781 0.15625,0.01562l0.01562,0.87502z"/>
  </symbol>
  <symbol overflow="visible" id="t">
   <path id="svg_16" d="m2.4219,-4.1562l0,0.625l-0.51562,0c-0.13672,0 -0.23438,0.02734 -0.29688,0.07812c-0.05469,0.05469 -0.07813,0.13672 -0.07813,0.25l0,0.21875l0.82812,0l0,0.67188l-0.82812,0l0,2.3125l-0.95312,0l0,-2.3125l-0.46875,0l0,-0.67188l0.46875,0l0,-0.21875c0,-0.32031 0.08594,-0.5625 0.26562,-0.71875c0.1875,-0.15625 0.47266,-0.23437 0.85938,-0.23437l0.71875,0z"/>
  </symbol>
  <symbol overflow="visible" id="e">
   <path id="svg_17" d="m1.875,-2.375c-0.21094,0 -0.37109,0.07812 -0.48438,0.23438c-0.10547,0.14844 -0.15625,0.35938 -0.15625,0.64062c0,0.29297 0.05078,0.51562 0.15625,0.67188c0.11328,0.14844 0.27344,0.21875 0.48438,0.21875c0.20703,0 0.36719,-0.07031 0.48438,-0.21875c0.11328,-0.15625 0.17188,-0.37891 0.17188,-0.67188c0,-0.28125 -0.05859,-0.49219 -0.17188,-0.64062c-0.11719,-0.15625 -0.27734,-0.23438 -0.48438,-0.23438zm0,-0.6875c0.51953,0 0.92188,0.14062 1.2031,0.42188c0.28906,0.27344 0.4375,0.65234 0.4375,1.1406c0,0.5 -0.14844,0.89062 -0.4375,1.1719c-0.28125,0.27344 -0.68359,0.40625 -1.2031,0.40625c-0.51172,0 -0.91406,-0.13281 -1.2031,-0.40625c-0.29297,-0.28125 -0.4375,-0.67188 -0.4375,-1.1719c0,-0.48828 0.14453,-0.86719 0.4375,-1.1406c0.28906,-0.28125 0.69141,-0.42188 1.2031,-0.42188z"/>
  </symbol>
  <symbol overflow="visible" id="j">
   <path id="svg_18" d="m1.5,-3.8438l0,0.85938l0.98438,0l0,0.67188l-0.98438,0l0,1.2812c0,0.13672 0.02344,0.23047 0.07813,0.28125c0.0625,0.04297 0.17578,0.0625 0.34375,0.0625l0.48438,0l0,0.6875l-0.8125,0c-0.38672,0 -0.65625,-0.07813 -0.8125,-0.23438s-0.23438,-0.42188 -0.23438,-0.79688l0,-1.2812l-0.46875,0l0,-0.67188l0.46875,0l0,-0.85938l0.95312,0.00001z"/>
  </symbol>
  <symbol overflow="visible" id="s">
   <path id="svg_19" d="m0.5,-3.9844l1.1562,0l1.4375,2.7344l0,-2.7344l0.98438,0l0,3.9844l-1.1562,0l-1.4375,-2.7344l0,2.7344l-0.98438,0l0,-3.9844z"/>
  </symbol>
  <symbol overflow="visible" id="r">
   <path id="svg_20" d="m3.4688,-1.8281l0,1.8281l-0.96875,0l0,-1.3906c0,-0.25781 -0.00781,-0.4375 -0.01563,-0.53125c-0.01171,-0.10156 -0.03125,-0.17578 -0.0625,-0.21875c-0.03125,-0.0625 -0.08593,-0.10938 -0.15625,-0.14062c-0.0625,-0.03906 -0.13281,-0.0625 -0.20312,-0.0625c-0.21094,0 -0.37109,0.07812 -0.48438,0.23438c-0.10547,0.15625 -0.15625,0.37109 -0.15625,0.64062l0,1.4688l-0.96875,0l0,-2.9844l0.96875,0l0,0.4375c0.13281,-0.17578 0.28516,-0.30469 0.45312,-0.39062c0.16406,-0.08203 0.34375,-0.125 0.53125,-0.125c0.34375,0 0.60156,0.10938 0.78125,0.32812c0.1875,0.21094 0.28125,0.51172 0.28125,0.90625l0.00001,-0.00003z"/>
  </symbol>
  <symbol overflow="visible" id="q">
   <path id="svg_21" d="m0.5,-3.9844l1.7031,0c0.50781,0 0.89844,0.11719 1.1719,0.34375c0.26953,0.21875 0.40625,0.53906 0.40625,0.95312c0,0.41797 -0.13672,0.74219 -0.40625,0.96875c-0.27344,0.21875 -0.66406,0.32812 -1.1719,0.32812l-0.67188,0l0,1.3906l-1.0312,0l-0.00002,-3.98434zm1.0312,0.75l0,1.1094l0.5625,0c0.19531,0 0.34766,-0.04688 0.45312,-0.14062c0.11328,-0.10156 0.17188,-0.24219 0.17188,-0.42188c0,-0.17578 -0.05859,-0.3125 -0.17188,-0.40625c-0.10547,-0.09375 -0.25781,-0.14062 -0.45312,-0.14062l-0.5625,-0.00003z"/>
  </symbol>
  <symbol overflow="visible" id="p">
   <path id="svg_22" d="m0.45312,-2.9844l0.96875,0l0,2.9375c0,0.39453 -0.10156,0.69531 -0.29688,0.90625c-0.1875,0.21875 -0.46484,0.32812 -0.82812,0.32812l-0.48438,0l0,-0.64062l0.17188,0c0.17578,0 0.29688,-0.04297 0.35938,-0.125c0.07031,-0.07422 0.10938,-0.23047 0.10938,-0.46875l-0.00001,-2.9375zm0,-1.1719l0.96875,0l0,0.78125l-0.96875,0l0,-0.78125z"/>
  </symbol>
  <symbol overflow="visible" id="o">
   <path id="svg_23" d="m2.875,-2.8906l0,0.76562c-0.125,-0.08203 -0.25781,-0.14453 -0.39062,-0.1875c-0.13672,-0.03906 -0.27344,-0.0625 -0.40625,-0.0625c-0.27344,0 -0.48047,0.07813 -0.625,0.23438c-0.14844,0.15625 -0.21875,0.37109 -0.21875,0.64062c0,0.28125 0.07031,0.5 0.21875,0.65625c0.14453,0.15625 0.35156,0.23438 0.625,0.23438c0.14453,0 0.28516,-0.01953 0.42188,-0.0625c0.13281,-0.03906 0.25781,-0.10938 0.375,-0.20312l0,0.78125c-0.14844,0.0625 -0.29688,0.10156 -0.45312,0.125c-0.15625,0.03125 -0.3125,0.04688 -0.46875,0.04688c-0.54297,0 -0.96484,-0.13281 -1.2656,-0.40625c-0.30469,-0.28125 -0.45312,-0.67188 -0.45312,-1.1719c0,-0.48828 0.14844,-0.8672 0.45312,-1.1406c0.30078,-0.28125 0.72266,-0.42189 1.2656,-0.42189c0.15625,0 0.3125,0.01563 0.46875,0.04688c0.15625,0.02344 0.30469,0.0625 0.45312,0.125l-0.00001,0z"/>
  </symbol>
 </defs>
 <g>
  <title>Layer 1</title>
  <g id="svg_24">
   <path fill="#bf0000" id="svg_25" d="m350,1.0938c-154.03,0 -278.9,124.87 -278.9,278.9c0,154.03 124.87,278.91 278.89,278.91c154.03,0 278.91,-124.88 278.91,-278.91c0,-154.03 -124.88,-278.9 -278.91,-278.9l0.01,0zm105.21,385.2c-11.137,11.125 -29.176,11.125 -40.301,0l-63.465,-63.465l-66.352,66.352c-11.129,11.125 -29.172,11.125 -40.297,0c-11.137,-11.141 -11.137,-29.176 0,-40.312l66.348,-66.348l-61.773,-61.773c-11.125,-11.141 -11.125,-29.176 0,-40.309c11.129,-11.129 29.176,-11.129 40.309,0l61.773,61.773l58.887,-58.891c11.129,-11.125 29.18,-11.129 40.301,0c11.137,11.141 11.137,29.188 0,40.309l-58.883,58.887l63.461,63.465c11.121,11.129 11.129,29.18 -0.00781,40.312l-0.00019,0z"/>
   <use fill="#bf0000" id="svg_26" xlink:href="#m" y="576.40625" x="70"/>
   <use fill="#bf0000" id="svg_27" xlink:href="#i" y="576.40625" x="73.91406"/>
   <use fill="#bf0000" id="svg_28" xlink:href="#n" y="576.40625" x="79.38281"/>
   <use fill="#bf0000" id="svg_29" xlink:href="#m" y="576.40625" x="83.61719"/>
   <use fill="#bf0000" id="svg_30" xlink:href="#h" y="576.40625" x="87.53125"/>
   <use fill="#bf0000" id="svg_31" xlink:href="#d" y="576.40625" x="91.44531"/>
   <use fill="#bf0000" id="svg_32" xlink:href="#a" y="576.40625" x="95.15234"/>
   <use fill="#bf0000" id="svg_33" xlink:href="#a" y="576.40625" x="97.02734"/>
   <use fill="#bf0000" id="svg_34" xlink:href="#b" y="576.40625" x="98.90234"/>
   <use fill="#bf0000" id="svg_35" xlink:href="#c" y="576.40625" x="102.59375"/>
   <use fill="#bf0000" id="svg_36" xlink:href="#g" y="576.40625" x="108.39063"/>
   <use fill="#bf0000" id="svg_37" xlink:href="#a" y="576.40625" x="112.125"/>
   <use fill="#bf0000" id="svg_38" xlink:href="#w" y="576.40625" x="115.90625"/>
   <use fill="#bf0000" id="svg_39" xlink:href="#b" y="576.40625" x="119.64063"/>
   <use fill="#bf0000" id="svg_40" xlink:href="#a" y="576.40625" x="123.33203"/>
   <use fill="#bf0000" id="svg_41" xlink:href="#b" y="576.40625" x="125.20703"/>
   <use fill="#bf0000" id="svg_42" xlink:href="#c" y="576.40625" x="128.89453"/>
   <use fill="#bf0000" id="svg_43" xlink:href="#g" y="576.40625" x="134.69141"/>
   <use fill="#bf0000" id="svg_44" xlink:href="#a" y="576.40625" x="138.42969"/>
   <use fill="#bf0000" id="svg_45" xlink:href="#v" y="576.40625" x="142.20703"/>
   <use fill="#bf0000" id="svg_46" xlink:href="#l" y="576.40625" x="146.85547"/>
   <use fill="#bf0000" id="svg_47" xlink:href="#b" y="576.40625" x="150.75"/>
   <use fill="#bf0000" id="svg_48" xlink:href="#h" y="576.40625" x="154.44141"/>
   <use fill="#bf0000" id="svg_49" xlink:href="#k" y="576.40625" x="158.35547"/>
   <use fill="#bf0000" id="svg_50" xlink:href="#u" y="576.40625" x="164.05469"/>
   <use fill="#bf0000" id="svg_51" xlink:href="#f" y="576.40625" x="165.92578"/>
   <use fill="#bf0000" id="svg_52" xlink:href="#i" y="576.40625" x="168.625"/>
   <use fill="#bf0000" id="svg_53" xlink:href="#t" y="581.875" x="70"/>
   <use fill="#bf0000" id="svg_54" xlink:href="#f" y="581.875" x="72.37891"/>
   <use fill="#bf0000" id="svg_55" xlink:href="#e" y="581.875" x="75.07813"/>
   <use fill="#bf0000" id="svg_56" xlink:href="#k" y="581.875" x="78.83203"/>
   <use fill="#bf0000" id="svg_57" xlink:href="#j" y="581.875" x="86.4375"/>
   <use fill="#bf0000" id="svg_58" xlink:href="#c" y="581.875" x="89.05078"/>
   <use fill="#bf0000" id="svg_59" xlink:href="#d" y="581.875" x="92.94141"/>
   <use fill="#bf0000" id="svg_60" xlink:href="#s" y="581.875" x="98.55469"/>
   <use fill="#bf0000" id="svg_61" xlink:href="#e" y="581.875" x="103.13281"/>
   <use fill="#bf0000" id="svg_62" xlink:href="#l" y="581.875" x="106.89063"/>
   <use fill="#bf0000" id="svg_63" xlink:href="#r" y="581.875" x="110.78516"/>
   <use fill="#bf0000" id="svg_64" xlink:href="#q" y="581.875" x="116.58203"/>
   <use fill="#bf0000" id="svg_65" xlink:href="#f" y="581.875" x="120.58984"/>
   <use fill="#bf0000" id="svg_66" xlink:href="#e" y="581.875" x="123.28516"/>
   <use fill="#bf0000" id="svg_67" xlink:href="#p" y="581.875" x="127.04297"/>
   <use fill="#bf0000" id="svg_68" xlink:href="#d" y="581.875" x="128.91797"/>
   <use fill="#bf0000" id="svg_69" xlink:href="#o" y="581.875" x="132.625"/>
   <use fill="#bf0000" id="svg_70" xlink:href="#j" y="581.875" x="135.86719"/>
  </g>
 </g>
</svg>