<svg width="10" height="10" xmlns="http://www.w3.org/2000/svg" version="1.1">
 <g>
  <title>Layer 1</title>
  <g id="svg_1">
   <path d="m4.97949,2.36162c-1.8501,0.0001 -3.5573,0.9988 -4.4643,2.6113a0.26461,0.26461 0 0 0 -0.0001,0.2593c0.9061,1.6138 2.6136,2.6137 4.4643,2.6145a0.26461,0.26461 0 0 0 0.0003,0c1.8501,-0.0007 3.5571,-1 4.4635,-2.6129a0.26461,0.26461 0 0 0 0,-0.2593c-0.9064,-1.6129 -2.6134,-2.6121 -4.4635,-2.6129a0.26461,0.26461 0 0 0 -0.0002,0zm-0.0001,0.5292c1.6098,0.0006 3.0967,0.8427 3.9267,2.2134c-0.83,1.3706 -2.3168,2.2126 -3.9264,2.2133c-1.6103,-0.0006 -3.0976,-0.8433 -3.9275,-2.2148c0.8305,-1.3702 2.3176,-2.2118 3.9272,-2.2119zm-0.0002,0.6093c-0.8828,0 -1.6041,0.7213 -1.6041,1.6041c0,0.8827 0.7213,1.604 1.6041,1.604c0.8827,0 1.604,-0.7213 1.604,-1.604c0,-0.8828 -0.7213,-1.6041 -1.604,-1.6041zm0,0.5292c0.5967,0 1.0748,0.4781 1.0748,1.0749c0,0.5967 -0.4781,1.0748 -1.0748,1.0748c-0.5968,0 -1.0749,-0.4781 -1.0749,-1.0748c0,-0.5968 0.4781,-1.0749 1.0749,-1.0749z" fill="#000000" fill-rule="evenodd" stroke-width="0.00743" stroke-linecap="round" stroke-linejoin="round" id="svg_2"/>
  </g>
  <text x="0" y="25.58333" fill="#000000" font-size="5px" font-weight="bold" font-family="'Helvetica Neue', Helvetica, Arial-Unicode, Arial, Sans-serif" id="svg_3">Created by Larea</text>
  <text x="0" y="30.58333" fill="#000000" font-size="5px" font-weight="bold" font-family="'Helvetica Neue', Helvetica, Arial-Unicode, Arial, Sans-serif" id="svg_4">from the Noun Project</text>
 </g>

</svg>