<svg width="500" height="400" xmlns="http://www.w3.org/2000/svg" version="1.1">

 <g>
  <title>Layer 1</title>
  <g id="svg_1">
   <path id="svg_2" d="m415.33,23.332l-326.66,0c-18.566,0 -36.371,7.375 -49.5,20.504c-13.125,13.129 -20.5,30.934 -20.5,49.496l0,210c0,18.566 7.375,36.371 20.5,49.5c13.129,13.125 30.934,20.5 49.5,20.5l326.66,0c18.566,0 36.371,-7.375 49.5,-20.5c13.125,-13.129 20.5,-30.934 20.5,-49.5l0,-210c0,-18.562 -7.375,-36.367 -20.5,-49.496c-13.129,-13.129 -30.934,-20.504 -49.5,-20.504zm23.332,280l0.00391,0c0,6.1914 -2.4609,12.125 -6.8359,16.5s-10.309,6.8359 -16.5,6.8359l-326.66,0c-6.1914,0 -12.125,-2.4609 -16.5,-6.8359s-6.8359,-10.309 -6.8359,-16.5l0,-210c0,-6.1875 2.4609,-12.121 6.8359,-16.496c4.375,-4.3789 10.309,-6.8359 16.5,-6.8359l326.66,0c6.1914,0 12.125,2.457 16.5,6.8359c4.375,4.375 6.8359,10.309 6.8359,16.496l-0.00391,210z"/>
   <path id="svg_3" d="m381.57,95.79l-129.57,64.793l-129.57,-64.793c-7.4805,-3.7266 -16.383,-3.1797 -23.352,1.4375c-6.9688,4.6133 -10.941,12.598 -10.43,20.941c0.51562,8.3398 5.4414,15.777 12.922,19.504l140,70c6.5664,3.2812 14.293,3.2812 20.859,0l140,-70c7.4609,-3.7266 12.367,-11.152 12.871,-19.477c0.50391,-8.3242 -3.4727,-16.285 -10.43,-20.883c-6.957,-4.5977 -15.84,-5.1367 -23.301,-1.4102l0.001,-0.1123z"/>
  </g>
 </g>
</svg>