<?xml version="1.0" encoding="UTF-8"?>
<svg width="700pt" height="700pt" version="1.1" viewBox="0 0 700 700" xmlns="http://www.w3.org/2000/svg">
 <g>
  <path d="m513.33 93.332h-326.66c-18.566 0-36.371 7.375-49.5 20.504-13.125 13.129-20.5 30.934-20.5 49.496v210c0 18.566 7.375 36.371 20.5 49.5 13.129 13.125 30.934 20.5 49.5 20.5h326.66c18.566 0 36.371-7.375 49.5-20.5 13.125-13.129 20.5-30.934 20.5-49.5v-210c0-18.562-7.375-36.367-20.5-49.496-13.129-13.129-30.934-20.504-49.5-20.504zm23.332 280h0.003907c0 6.1914-2.4609 12.125-6.8359 16.5s-10.309 6.8359-16.5 6.8359h-326.66c-6.1914 0-12.125-2.4609-16.5-6.8359s-6.8359-10.309-6.8359-16.5v-210c0-6.1875 2.4609-12.121 6.8359-16.496 4.375-4.3789 10.309-6.8359 16.5-6.8359h326.66c6.1914 0 12.125 2.457 16.5 6.8359 4.375 4.375 6.8359 10.309 6.8359 16.496z"/>
  <path d="m479.57 165.79-129.57 64.793-129.57-64.793c-7.4805-3.7266-16.383-3.1797-23.352 1.4375-6.9688 4.6133-10.941 12.598-10.43 20.941 0.51562 8.3398 5.4414 15.777 12.922 19.504l140 70c6.5664 3.2812 14.293 3.2812 20.859 0l140-70c7.4609-3.7266 12.367-11.152 12.871-19.477 0.50391-8.3242-3.4727-16.285-10.43-20.883-6.957-4.5977-15.84-5.1367-23.301-1.4102z"/>
 </g>
</svg>
