<svg width="26" height="25" xmlns="http://www.w3.org/2000/svg">
 <title>Artboard 23</title>

 <g>
  <title>Layer 1</title>
  <g stroke="null" id="svg_1" data-name="1">
   <path stroke="null" id="svg_2" d="m18.95834,1.33336l-11.74999,0a5.875,5.96456 0 0 0 -5.875,5.96456l0,4.77165a5.875,5.96456 0 0 0 5.875,5.96456l0,4.77165a1.175,1.19291 0 0 0 1.974,0.88276l6.05125,-5.65441l3.72475,0a5.875,5.96456 0 0 0 5.875,-5.96456l0,-4.77165a5.875,5.96456 0 0 0 -5.875,-5.96456zm3.525,10.73621a3.525,3.57874 0 0 1 -3.525,3.57874l-4.183,0a1.175,1.19291 0 0 0 -0.799,0.31016l-4.418,4.12748l0,-3.24472a1.175,1.19291 0 0 0 -1.175,-1.19291l-1.175,0a3.525,3.57874 0 0 1 -3.525,-3.57874l0,-4.77165a3.525,3.57874 0 0 1 3.525,-3.57874l11.74999,0a3.525,3.57874 0 0 1 3.525,3.57874l0,4.77165z"/>
  </g>
  <text id="svg_3" font-family="'Helvetica Neue', Helvetica, Arial-Unicode, Arial, Sans-serif" font-weight="bold" font-size="5px" fill="#000000" y="47" x="0">Created by firsticons</text>
  <text id="svg_4" font-family="'Helvetica Neue', Helvetica, Arial-Unicode, Arial, Sans-serif" font-weight="bold" font-size="5px" fill="#000000" y="52" x="0">from the Noun Project</text>
 </g>
</svg>