<svg width="100" height="100" xmlns="http://www.w3.org/2000/svg" xml:space="preserve" enable-background="new -4.904 -16.704 100 100" version="1.1">

 <g>
  <title>Layer 1</title>
  <path id="svg_1" d="m25.41396,82.11685l-12.194,-8.554l-0.869,0c-4.743,0 -8.601,-3.859 -8.601,-8.603l0,-12.565c0,-4.744 3.858,-8.603 8.601,-8.603l27.434,0c4.742,0 8.601,3.858 8.601,8.603l0,12.565c0,4.744 -3.858,8.603 -8.601,8.603l-14.499,0l2.042,7.194c0.143,0.507 -0.048,1.05 -0.478,1.355c-0.217,0.152 -0.468,0.229 -0.722,0.229c-0.249,0.001 -0.5,-0.073 -0.714,-0.224zm-13.063,-35.834c-3.369,0 -6.11,2.742 -6.11,6.111l0,12.566c0,3.37 2.741,6.111 6.11,6.111l1.262,0c0.256,0 0.505,0.079 0.716,0.227l9.646,6.766l-1.535,-5.406c-0.105,-0.375 -0.03,-0.779 0.205,-1.092c0.236,-0.313 0.604,-0.494 0.994,-0.494l16.146,0c3.368,0 6.11,-2.741 6.11,-6.111l0,-12.566c0,-3.369 -2.742,-6.111 -6.11,-6.111l-27.434,0l0,-0.001z"/>
  <circle id="svg_2" r="2.729" cy="58.94585" cx="36.03096"/>
  <circle id="svg_3" r="2.729" cy="59.08085" cx="26.06696"/>
  <circle id="svg_4" r="2.729" cy="59.08085" cx="16.10396"/>
  <path id="svg_5" d="m79.09096,15.74985l-47.363,0c-8.189,0 -14.852,6.662 -14.852,14.851l0,13.191l4.301,0l0,-13.191c0,-5.817 4.733,-10.55 10.551,-10.55l47.363,0c5.816,0 10.55,4.732 10.55,10.55l0,21.697c0,5.817 -4.733,10.551 -10.55,10.551l-2.179,0c-0.441,0 -0.872,0.136 -1.234,0.39l-16.656,11.682l2.648,-9.334c0.185,-0.648 0.054,-1.346 -0.354,-1.886c-0.407,-0.537 -1.041,-0.853 -1.716,-0.853l-11.215,0l-0.281,4.301l8.653,0l-3.524,12.422c-0.247,0.876 0.082,1.813 0.824,2.34c0.372,0.264 0.808,0.396 1.244,0.396c0.433,0 0.865,-0.13 1.235,-0.39l21.056,-14.769l1.499,0c8.188,0 14.851,-6.661 14.851,-14.852l0,-21.695c-0.001,-8.189 -6.663,-14.851 -14.851,-14.851z"/>
  <circle id="svg_6" r="4.894" cy="40.81085" cx="73.27096"/>
  <circle id="svg_7" r="4.893" cy="41.05285" cx="55.40896"/>
  <circle id="svg_8" r="4.894" cy="41.05285" cx="37.54596"/>
 </g>
</svg>