<?xml version="1.0"?>
<svg width="570" height="570" xmlns="http://www.w3.org/2000/svg" xmlns:svg="http://www.w3.org/2000/svg" xmlns:xlink="http://www.w3.org/1999/xlink" version="1.1">
 <defs>
  <symbol id="u" overflow="visible">
   <path d="m8.08,-0.48c-0.42,0.21 -0.85,0.38 -1.3,0.48c-0.45,0.11 -0.92,0.17 -1.42,0.17c-1.46,0 -2.62,-0.4 -3.49,-1.22c-0.85,-0.82 -1.28,-1.93 -1.28,-3.34s0.43,-2.52 1.28,-3.33c0.87,-0.82 2.03,-1.23 3.49,-1.23c0.5,0 0.97,0.06 1.42,0.17c0.45,0.1 0.88,0.26 1.3,0.48l0,1.82c-0.42,-0.29 -0.84,-0.49 -1.25,-0.63c-0.41,-0.13 -0.84,-0.2 -1.28,-0.2c-0.82,0 -1.46,0.26 -1.93,0.78c-0.46,0.52 -0.68,1.23 -0.68,2.14s0.22,1.62 0.68,2.14c0.47,0.52 1.11,0.78 1.93,0.78c0.44,0 0.87,-0.07 1.28,-0.2c0.41,-0.13 0.83,-0.35 1.25,-0.63l0,1.82z" id="svg_1"/>
  </symbol>
  <symbol id="c" overflow="visible">
   <path d="m5.91,-4.8c-0.18,-0.09 -0.36,-0.15 -0.55,-0.18c-0.18,-0.04 -0.36,-0.07 -0.55,-0.07c-0.54,0 -0.96,0.17 -1.25,0.52c-0.29,0.34 -0.44,0.84 -0.44,1.48l0,3.05l-2.1,0l0,-6.59l2.1,0l0,1.07c0.27,-0.42 0.58,-0.73 0.93,-0.93c0.35,-0.2 0.77,-0.3 1.26,-0.3c0.07,0 0.15,0.01 0.24,0.02c0.08,0 0.2,0.01 0.36,0.03l0,1.9z" id="svg_2"/>
  </symbol>
  <symbol id="a" overflow="visible">
   <path d="m7.59,-3.31l0,0.59l-4.92,0c0.05,0.5 0.23,0.88 0.53,1.13c0.3,0.24 0.73,0.36 1.28,0.36c0.45,0 0.9,-0.07 1.36,-0.19c0.47,-0.13 0.95,-0.34 1.44,-0.61l0,1.62c-0.5,0.19 -1,0.33 -1.5,0.43c-0.49,0.1 -0.98,0.15 -1.48,0.15c-1.2,0 -2.14,-0.3 -2.8,-0.9c-0.66,-0.62 -0.98,-1.47 -0.98,-2.57c0,-1.07 0.32,-1.91 0.96,-2.53c0.66,-0.61 1.56,-0.92 2.69,-0.92c1.04,0 1.87,0.31 2.49,0.94c0.62,0.62 0.93,1.46 0.93,2.5l0,0zm-2.15,-0.71c0,-0.4 -0.12,-0.72 -0.36,-0.96c-0.23,-0.25 -0.53,-0.38 -0.91,-0.38c-0.42,0 -0.76,0.12 -1.01,0.34c-0.25,0.23 -0.41,0.57 -0.47,1l2.75,0z" id="svg_3"/>
  </symbol>
  <symbol id="f" overflow="visible">
   <path d="m3.97,-2.97c-0.44,0 -0.77,0.08 -1,0.24c-0.22,0.14 -0.33,0.36 -0.33,0.65c0,0.26 0.09,0.47 0.27,0.63c0.18,0.15 0.43,0.22 0.75,0.22c0.39,0 0.72,-0.15 1,-0.43c0.27,-0.28 0.4,-0.64 0.4,-1.07l0,-0.24l-1.09,0zm3.22,-0.8l0,3.77l-2.13,0l0,-0.98c-0.28,0.4 -0.6,0.7 -0.95,0.89c-0.36,0.17 -0.78,0.26 -1.28,0.26c-0.69,0 -1.25,-0.19 -1.67,-0.59c-0.43,-0.41 -0.64,-0.93 -0.64,-1.56c0,-0.77 0.26,-1.34 0.79,-1.69c0.53,-0.37 1.37,-0.55 2.52,-0.55l1.23,0l0,-0.17c0,-0.33 -0.13,-0.58 -0.39,-0.74c-0.26,-0.15 -0.67,-0.23 -1.23,-0.23c-0.45,0 -0.87,0.05 -1.27,0.14c-0.38,0.09 -0.74,0.23 -1.08,0.41l0,-1.61c0.45,-0.1 0.9,-0.18 1.36,-0.24c0.46,-0.06 0.92,-0.09 1.38,-0.09c1.19,0 2.04,0.23 2.56,0.7c0.53,0.47 0.8,1.23 0.8,2.28l0,0z" id="svg_4"/>
  </symbol>
  <symbol id="b" overflow="visible">
   <path d="m3.31,-8.47l0,1.88l2.17,0l0,1.5l-2.17,0l0,2.79c0,0.32 0.07,0.53 0.19,0.63c0.13,0.1 0.36,0.15 0.72,0.15l1.09,0l0,1.52l-1.81,0c-0.84,0 -1.43,-0.17 -1.78,-0.52c-0.34,-0.35 -0.52,-0.94 -0.52,-1.78l0,-2.79l-1.04,0l0,-1.5l1.04,0l0,-1.88l2.11,0z" id="svg_5"/>
  </symbol>
  <symbol id="j" overflow="visible">
   <path d="m5.5,-5.63l0,-3.54l2.13,0l0,9.17l-2.13,0l0,-0.95c-0.29,0.38 -0.62,0.67 -0.97,0.86c-0.34,0.17 -0.74,0.26 -1.2,0.26c-0.81,0 -1.48,-0.32 -2,-0.97c-0.53,-0.64 -0.78,-1.47 -0.78,-2.5c0,-1 0.25,-1.83 0.78,-2.48c0.52,-0.65 1.19,-0.97 2,-0.97c0.46,0 0.86,0.09 1.2,0.28c0.35,0.18 0.68,0.46 0.97,0.84l0,0zm-1.39,4.27c0.44,0 0.79,-0.16 1.03,-0.48c0.24,-0.34 0.36,-0.82 0.36,-1.46c0,-0.62 -0.12,-1.09 -0.36,-1.42c-0.24,-0.33 -0.59,-0.5 -1.03,-0.5c-0.45,0 -0.79,0.17 -1.03,0.5c-0.23,0.33 -0.35,0.8 -0.35,1.42c0,0.64 0.12,1.12 0.35,1.46c0.24,0.32 0.58,0.48 1.03,0.48z" id="svg_6"/>
  </symbol>
  <symbol id="i" overflow="visible">
   <path d="m4.53,-1.36c0.45,0 0.79,-0.16 1.02,-0.48c0.24,-0.34 0.36,-0.82 0.36,-1.46c0,-0.62 -0.12,-1.09 -0.36,-1.42c-0.23,-0.33 -0.57,-0.5 -1.02,-0.5c-0.46,0 -0.81,0.17 -1.05,0.5c-0.24,0.33 -0.36,0.8 -0.36,1.42s0.12,1.11 0.36,1.44c0.24,0.34 0.59,0.5 1.05,0.5l0,0zm-1.4,-4.27c0.28,-0.38 0.61,-0.66 0.96,-0.84c0.36,-0.19 0.76,-0.28 1.22,-0.28c0.82,0 1.48,0.32 2,0.97c0.52,0.65 0.78,1.48 0.78,2.48c0,1.03 -0.26,1.86 -0.78,2.5c-0.52,0.65 -1.18,0.97 -2,0.97c-0.46,0 -0.86,-0.09 -1.22,-0.26c-0.35,-0.19 -0.68,-0.48 -0.96,-0.86l0,0.95l-2.11,0l0,-9.17l2.11,0l0,3.54z" id="svg_7"/>
  </symbol>
  <symbol id="e" overflow="visible">
   <path d="m0.14,-6.59l2.11,0l1.78,4.46l1.5,-4.46l2.11,0l-2.76,7.22c-0.29,0.72 -0.61,1.23 -0.99,1.53c-0.37,0.3 -0.85,0.45 -1.47,0.45l-1.22,0l0,-1.39l0.66,0c0.36,0 0.62,-0.06 0.78,-0.17c0.16,-0.12 0.3,-0.32 0.39,-0.61l0.06,-0.19l-2.95,-6.84z" id="svg_8"/>
  </symbol>
  <symbol id="h" overflow="visible">
   <path d="m6.44,-1.61l-3.55,0l-0.55,1.61l-2.28,0l3.25,-8.8l2.71,0l3.26,8.8l-2.28,0l-0.56,-1.61zm-2.97,-1.62l2.4,0l-1.2,-3.5l-1.2,3.5z" id="svg_9"/>
  </symbol>
  <symbol id="t" overflow="visible">
   <path d="m1.02,-6.59l2.11,0l0,6.59l-2.11,0l0,-6.59zm0,-2.58l2.11,0l0,1.73l-2.11,0l0,-1.73z" id="svg_10"/>
  </symbol>
  <symbol id="s" overflow="visible">
   <path d="m6.17,-6.39l0,1.61c-0.46,-0.2 -0.9,-0.34 -1.31,-0.44c-0.42,-0.09 -0.81,-0.14 -1.19,-0.14c-0.4,0 -0.71,0.06 -0.9,0.16c-0.19,0.1 -0.29,0.26 -0.29,0.47c0,0.16 0.07,0.29 0.22,0.39c0.15,0.08 0.41,0.14 0.8,0.18l0.38,0.07c1.07,0.13 1.79,0.36 2.17,0.67s0.56,0.81 0.56,1.48c0,0.7 -0.26,1.23 -0.78,1.58c-0.53,0.36 -1.29,0.53 -2.31,0.53c-0.44,0 -0.89,-0.04 -1.36,-0.11c-0.47,-0.06 -0.95,-0.16 -1.44,-0.29l0,-1.61c0.42,0.21 0.86,0.36 1.3,0.47c0.44,0.09 0.89,0.14 1.34,0.14c0.41,0 0.73,-0.06 0.94,-0.18c0.2,-0.11 0.31,-0.28 0.31,-0.5c0,-0.18 -0.07,-0.32 -0.22,-0.42c-0.15,-0.09 -0.43,-0.16 -0.86,-0.22l-0.37,-0.04c-0.94,-0.12 -1.6,-0.33 -1.97,-0.64c-0.38,-0.32 -0.56,-0.81 -0.56,-1.46c0,-0.7 0.23,-1.22 0.71,-1.56c0.48,-0.33 1.21,-0.5 2.21,-0.5c0.38,0 0.79,0.03 1.22,0.09c0.42,0.06 0.89,0.14 1.4,0.27z" id="svg_11"/>
  </symbol>
  <symbol id="g" overflow="visible">
   <path d="m7.64,-4.02l0,4.02l-2.11,0l0,-3.06c0,-0.57 -0.01,-0.97 -0.05,-1.19c-0.02,-0.22 -0.06,-0.38 -0.12,-0.48c-0.09,-0.14 -0.2,-0.24 -0.34,-0.32c-0.14,-0.08 -0.3,-0.12 -0.49,-0.12c-0.44,0 -0.78,0.17 -1.03,0.51s-0.37,0.82 -0.37,1.41l0,3.25l-2.11,0l0,-9.17l2.11,0l0,3.54c0.31,-0.38 0.64,-0.66 1,-0.84c0.36,-0.19 0.75,-0.28 1.18,-0.28c0.77,0 1.35,0.23 1.74,0.7c0.39,0.46 0.59,1.14 0.59,2.03l0,0z" id="svg_12"/>
  </symbol>
  <symbol id="r" overflow="visible">
   <path d="m5.36,-9.17l0,1.39l-1.17,0c-0.31,0 -0.51,0.06 -0.63,0.17c-0.11,0.11 -0.17,0.29 -0.17,0.55l0,0.47l1.8,0l0,1.5l-1.8,0l0,5.09l-2.11,0l0,-5.09l-1.05,0l0,-1.5l1.05,0l0,-0.47c0,-0.72 0.2,-1.25 0.59,-1.6c0.41,-0.34 1.03,-0.51 1.86,-0.51l1.63,0z" id="svg_13"/>
  </symbol>
  <symbol id="d" overflow="visible">
   <path d="m4.16,-5.25c-0.47,0 -0.83,0.17 -1.08,0.52c-0.24,0.33 -0.36,0.81 -0.36,1.43c0,0.64 0.12,1.12 0.36,1.46c0.25,0.33 0.61,0.5 1.08,0.5c0.45,0 0.8,-0.17 1.04,-0.5c0.25,-0.34 0.38,-0.82 0.38,-1.46c0,-0.62 -0.13,-1.1 -0.38,-1.43c-0.24,-0.35 -0.59,-0.52 -1.04,-0.52zm0,-1.5c1.13,0 2.02,0.31 2.65,0.92c0.64,0.61 0.96,1.45 0.96,2.53c0,1.09 -0.32,1.94 -0.96,2.55c-0.63,0.62 -1.52,0.92 -2.65,0.92c-1.15,0 -2.05,-0.3 -2.69,-0.92c-0.64,-0.61 -0.95,-1.46 -0.95,-2.55c0,-1.08 0.31,-1.92 0.95,-2.53c0.64,-0.61 1.54,-0.92 2.69,-0.92z" id="svg_14"/>
  </symbol>
  <symbol id="q" overflow="visible">
   <path d="m7.13,-5.5c0.26,-0.41 0.58,-0.71 0.95,-0.92c0.36,-0.22 0.76,-0.33 1.2,-0.33c0.76,0 1.34,0.23 1.74,0.7c0.39,0.46 0.59,1.14 0.59,2.03l0,4.02l-2.11,0l0,-3.44l0,-0.15l0,-0.24c0,-0.47 -0.07,-0.8 -0.2,-1.01c-0.14,-0.22 -0.36,-0.33 -0.66,-0.33c-0.41,0 -0.72,0.17 -0.94,0.5c-0.22,0.33 -0.33,0.81 -0.33,1.44l0,3.23l-2.12,0l0,-3.44c0,-0.72 -0.06,-1.19 -0.19,-1.4c-0.12,-0.22 -0.35,-0.33 -0.67,-0.33c-0.41,0 -0.72,0.17 -0.94,0.5c-0.22,0.33 -0.33,0.81 -0.33,1.42l0,3.25l-2.12,0l0,-6.59l2.12,0l0,0.96c0.26,-0.37 0.56,-0.65 0.9,-0.84c0.33,-0.19 0.7,-0.28 1.11,-0.28c0.45,0 0.85,0.11 1.2,0.33c0.35,0.22 0.62,0.53 0.79,0.92l0.01,0z" id="svg_15"/>
  </symbol>
  <symbol id="p" overflow="visible">
   <path d="m1.11,-8.8l2.53,0l3.2,6.03l0,-6.03l2.14,0l0,8.8l-2.53,0l-3.2,-6.03l0,6.03l-2.14,0l0,-8.8z" id="svg_16"/>
  </symbol>
  <symbol id="o" overflow="visible">
   <path d="m0.94,-2.56l0,-4.03l2.12,0l0,0.65c0,0.36 -0.01,0.81 -0.01,1.35l0,1.07c0,0.54 0.01,0.92 0.04,1.16c0.04,0.23 0.08,0.4 0.14,0.5c0.09,0.14 0.2,0.25 0.33,0.33c0.15,0.07 0.31,0.11 0.49,0.11c0.44,0 0.79,-0.17 1.04,-0.5c0.25,-0.35 0.38,-0.82 0.38,-1.42l0,-3.25l2.11,0l0,6.59l-2.11,0l0,-0.95c-0.33,0.38 -0.67,0.67 -1.02,0.86c-0.35,0.17 -0.74,0.26 -1.17,0.26c-0.76,0 -1.34,-0.23 -1.75,-0.7c-0.4,-0.47 -0.59,-1.15 -0.59,-2.03l0,0z" id="svg_17"/>
  </symbol>
  <symbol id="n" overflow="visible">
   <path d="m7.64,-4.02l0,4.02l-2.11,0l0,-3.08c0,-0.56 -0.01,-0.95 -0.05,-1.17c-0.02,-0.22 -0.06,-0.38 -0.12,-0.48c-0.09,-0.14 -0.2,-0.24 -0.34,-0.32c-0.14,-0.08 -0.3,-0.12 -0.49,-0.12c-0.44,0 -0.78,0.17 -1.03,0.51s-0.37,0.82 -0.37,1.41l0,3.25l-2.11,0l0,-6.59l2.11,0l0,0.96c0.31,-0.38 0.64,-0.66 1,-0.84c0.36,-0.19 0.75,-0.28 1.18,-0.28c0.77,0 1.35,0.23 1.74,0.7c0.39,0.46 0.59,1.14 0.59,2.03l0,0z" id="svg_18"/>
  </symbol>
  <symbol id="m" overflow="visible">
   <path d="m1.11,-8.8l3.77,0c1.11,0 1.96,0.25 2.56,0.75c0.6,0.5 0.9,1.21 0.9,2.13c0,0.92 -0.3,1.62 -0.9,2.12c-0.6,0.5 -1.45,0.75 -2.56,0.75l-1.5,0l0,3.05l-2.27,0l0,-8.8zm2.27,1.64l0,2.47l1.25,0c0.44,0 0.78,-0.11 1.01,-0.33c0.24,-0.21 0.36,-0.52 0.36,-0.9c0,-0.4 -0.12,-0.7 -0.36,-0.91c-0.23,-0.22 -0.57,-0.33 -1.01,-0.33l-1.25,0z" id="svg_19"/>
  </symbol>
  <symbol id="l" overflow="visible">
   <path d="m1.02,-6.59l2.11,0l0,6.46c0,0.89 -0.22,1.57 -0.65,2.04c-0.43,0.46 -1.04,0.7 -1.84,0.7l-1.05,0l0,-1.39l0.38,0c0.39,0 0.66,-0.1 0.81,-0.28c0.16,-0.18 0.24,-0.53 0.24,-1.07l0,-6.46zm0,-2.58l2.11,0l0,1.73l-2.11,0l0,-1.73z" id="svg_20"/>
  </symbol>
  <symbol id="k" overflow="visible">
   <path d="m6.34,-6.39l0,1.72c-0.29,-0.2 -0.58,-0.35 -0.87,-0.44c-0.28,-0.09 -0.58,-0.14 -0.89,-0.14c-0.59,0 -1.04,0.17 -1.38,0.52c-0.32,0.34 -0.48,0.82 -0.48,1.43c0,0.62 0.16,1.1 0.48,1.44c0.34,0.34 0.79,0.52 1.38,0.52c0.33,0 0.64,-0.05 0.94,-0.14c0.3,-0.1 0.57,-0.24 0.82,-0.44l0,1.73c-0.33,0.12 -0.67,0.21 -1.01,0.27c-0.34,0.06 -0.67,0.09 -1.02,0.09c-1.18,0 -2.12,-0.3 -2.79,-0.9c-0.67,-0.62 -1,-1.47 -1,-2.57c0,-1.08 0.33,-1.92 1,-2.53c0.67,-0.61 1.61,-0.92 2.79,-0.92c0.35,0 0.68,0.03 1.02,0.09c0.34,0.06 0.68,0.14 1.01,0.27l0,0z" id="svg_21"/>
  </symbol>
 </defs>
 <g class="layer">
  <title>Layer 1</title>
  <g id="svg_22">
   <path d="m498.41,70.17c-86.9,-86.9 -229.31,-86.9 -316.21,0c-74.83,74.83 -86.9,190.69 -33.79,277.59l-127.93,125.52c-19.31,21.72 -19.31,55.52 0,74.83c21.72,21.72 55.51,21.72 77.24,0l125.52,-125.52c86.9,53.1 200.34,41.03 275.17,-33.79c89.31,-86.9 89.31,-229.31 0,-318.62l0,-0.01zm-45.86,48.28c60.34,62.76 60.34,161.72 0,222.07c-62.76,62.76 -161.72,62.76 -224.48,0c-60.35,-60.34 -60.35,-159.31 0,-222.07c62.76,-60.34 161.72,-60.34 224.48,0z" fill="#5b67a2" id="svg_23"/>
   <path d="m435.66,224.66c0,24.14 38.62,21.72 36.21,-2.41c-2.42,-33.8 -16.9,-62.76 -38.62,-84.49c-21.73,-24.14 -53.11,-36.21 -84.49,-38.62c-24.13,-2.41 -26.55,33.79 -2.41,36.21c21.72,2.41 43.45,12.07 60.34,28.96c16.9,16.9 26.55,36.21 28.97,60.35l0,0z" fill="#5b67a2" id="svg_24"/>
   <use fill="#5b67a2" id="svg_25" x="6" xlink:href="#u" y="601.21"/>
   <use fill="#5b67a2" id="svg_26" x="14.86" xlink:href="#c" y="601.21"/>
   <use fill="#5b67a2" id="svg_27" x="20.81" xlink:href="#a" y="601.21"/>
   <use fill="#5b67a2" id="svg_28" x="29" xlink:href="#f" y="601.21"/>
   <use fill="#5b67a2" id="svg_29" x="37.14" xlink:href="#b" y="601.21"/>
   <use fill="#5b67a2" id="svg_30" x="42.91" xlink:href="#a" y="601.21"/>
   <use fill="#5b67a2" id="svg_31" x="51.09" xlink:href="#j" y="601.21"/>
   <use fill="#5b67a2" id="svg_32" x="63.93" xlink:href="#i" y="601.21"/>
   <use fill="#5b67a2" id="svg_33" x="72.57" xlink:href="#e" y="601.21"/>
   <use fill="#5b67a2" id="svg_34" x="84.64" xlink:href="#h" y="601.21"/>
   <use fill="#5b67a2" id="svg_35" x="93.98" xlink:href="#t" y="601.21"/>
   <use fill="#5b67a2" id="svg_36" x="98.12" xlink:href="#s" y="601.21"/>
   <use fill="#5b67a2" id="svg_37" x="105.3" xlink:href="#e" y="601.21"/>
   <use fill="#5b67a2" id="svg_38" x="113.17" xlink:href="#f" y="601.21"/>
   <use fill="#5b67a2" id="svg_39" x="121.32" xlink:href="#g" y="601.21"/>
   <use fill="#5b67a2" id="svg_40" x="6" xlink:href="#r" y="613.28"/>
   <use fill="#5b67a2" id="svg_41" x="11.25" xlink:href="#c" y="613.28"/>
   <use fill="#5b67a2" id="svg_42" x="17.2" xlink:href="#d" y="613.28"/>
   <use fill="#5b67a2" id="svg_43" x="25.5" xlink:href="#q" y="613.28"/>
   <use fill="#5b67a2" id="svg_44" x="42.27" xlink:href="#b" y="613.28"/>
   <use fill="#5b67a2" id="svg_45" x="48.04" xlink:href="#g" y="613.28"/>
   <use fill="#5b67a2" id="svg_46" x="56.63" xlink:href="#a" y="613.28"/>
   <use fill="#5b67a2" id="svg_47" x="69.02" xlink:href="#p" y="613.28"/>
   <use fill="#5b67a2" id="svg_48" x="79.12" xlink:href="#d" y="613.28"/>
   <use fill="#5b67a2" id="svg_49" x="87.41" xlink:href="#o" y="613.28"/>
   <use fill="#5b67a2" id="svg_50" x="96" xlink:href="#n" y="613.28"/>
   <use fill="#5b67a2" id="svg_51" x="108.8" xlink:href="#m" y="613.28"/>
   <use fill="#5b67a2" id="svg_52" x="117.64" xlink:href="#c" y="613.28"/>
   <use fill="#5b67a2" id="svg_53" x="123.6" xlink:href="#d" y="613.28"/>
   <use fill="#5b67a2" id="svg_54" x="131.89" xlink:href="#l" y="613.28"/>
   <use fill="#5b67a2" id="svg_55" x="136.02" xlink:href="#a" y="613.28"/>
   <use fill="#5b67a2" id="svg_56" x="144.21" xlink:href="#k" y="613.28"/>
   <use fill="#5b67a2" id="svg_57" x="151.36" xlink:href="#b" y="613.28"/>
  </g>
 </g>
</svg>