<svg width="570" height="570" xmlns="http://www.w3.org/2000/svg" xmlns:xlink="http://www.w3.org/1999/xlink" version="1.1">
 <defs>
  <symbol id="u" overflow="visible">
   <path d="m8.0781,-0.48438c-0.41797,0.21875 -0.85156,0.38281 -1.2969,0.48438c-0.44922,0.11328 -0.92188,0.17188 -1.4219,0.17188c-1.4609,0 -2.6211,-0.40625 -3.4844,-1.2188c-0.85547,-0.82031 -1.2812,-1.9375 -1.2812,-3.3438s0.42578,-2.5156 1.2812,-3.3281c0.86328,-0.82031 2.0234,-1.2344 3.4844,-1.2344c0.5,0 0.97266,0.05859 1.4219,0.17188c0.44531,0.10547 0.87891,0.26562 1.2969,0.48438l0,1.8125c-0.41797,-0.28125 -0.83594,-0.48828 -1.25,-0.625c-0.40625,-0.13281 -0.83594,-0.20312 -1.2812,-0.20312c-0.8125,0 -1.4531,0.26172 -1.9219,0.78125c-0.46094,0.52344 -0.6875,1.2344 -0.6875,2.1406s0.22656,1.6211 0.6875,2.1406c0.46875,0.52344 1.1094,0.78125 1.9219,0.78125c0.44531,0 0.875,-0.06641 1.2812,-0.20312c0.41406,-0.13281 0.83203,-0.34375 1.25,-0.625l0,1.81262z" id="svg_1"/>
  </symbol>
  <symbol id="c" overflow="visible">
   <path d="m5.9062,-4.7969c-0.17969,-0.09375 -0.35938,-0.15625 -0.54688,-0.1875c-0.17969,-0.03906 -0.35938,-0.0625 -0.54688,-0.0625c-0.54297,0 -0.96094,0.17188 -1.25,0.51562c-0.29297,0.34375 -0.4375,0.83984 -0.4375,1.4844l0,3.0469l-2.1094,0l0,-6.5938l2.1094,0l0,1.0781c0.26953,-0.42578 0.57812,-0.73828 0.92188,-0.9375c0.35156,-0.19531 0.77344,-0.29688 1.2656,-0.29688c0.07031,0 0.14844,0.00781 0.23438,0.01563c0.08203,0 0.20312,0.01171 0.35938,0.03125l0.00002,1.90628z" id="svg_2"/>
  </symbol>
  <symbol id="a" overflow="visible">
   <path d="m7.5938,-3.3125l0,0.59375l-4.9219,0c0.05078,0.5 0.22656,0.875 0.53125,1.125c0.30078,0.24219 0.72656,0.35938 1.2812,0.35938c0.44531,0 0.89844,-0.0625 1.3594,-0.1875c0.46875,-0.13281 0.94531,-0.33594 1.4375,-0.60938l0,1.625c-0.5,0.1875 -1,0.32812 -1.5,0.42188c-0.49219,0.10156 -0.98438,0.15625 -1.4844,0.15625c-1.1992,0 -2.1328,-0.30078 -2.7969,-0.90625c-0.65625,-0.61328 -0.98438,-1.4688 -0.98438,-2.5625c0,-1.0703 0.32031,-1.9141 0.96875,-2.5312c0.65625,-0.61328 1.5508,-0.92188 2.6875,-0.92188c1.0391,0 1.8672,0.3125 2.4844,0.9375c0.625,0.625 0.9375,1.4609 0.9375,2.5l0.00008,-0.00005zm-2.1562,-0.70312c0,-0.40625 -0.12109,-0.72656 -0.35938,-0.96875c-0.23047,-0.25 -0.53125,-0.375 -0.90625,-0.375c-0.41797,0 -0.75781,0.11719 -1.0156,0.34375c-0.25,0.23047 -0.40625,0.5625 -0.46875,1l2.74998,0z" id="svg_3"/>
  </symbol>
  <symbol id="f" overflow="visible">
   <path d="m3.9688,-2.9688c-0.4375,0 -0.77344,0.07813 -1,0.23438c-0.21875,0.14844 -0.32812,0.36719 -0.32812,0.65625c0,0.26172 0.08594,0.46875 0.26562,0.625c0.1875,0.14844 0.4375,0.21875 0.75,0.21875c0.39453,0 0.72656,-0.14062 1,-0.42188c0.26953,-0.28125 0.40625,-0.64062 0.40625,-1.0781l0,-0.23438l-1.09375,-0.00002zm3.2188,-0.79688l0,3.7656l-2.125,0l0,-0.98438c-0.28125,0.40625 -0.60156,0.70312 -0.95312,0.89062c-0.35547,0.17578 -0.78125,0.26562 -1.2812,0.26562c-0.6875,0 -1.2461,-0.19531 -1.6719,-0.59375c-0.42969,-0.40625 -0.64062,-0.92578 -0.64062,-1.5625c0,-0.76953 0.26562,-1.332 0.79688,-1.6875c0.53125,-0.36328 1.3672,-0.54688 2.5156,-0.54688l1.2344,0l0,-0.17188c0,-0.33203 -0.13281,-0.57812 -0.39062,-0.73438c-0.26172,-0.15625 -0.67188,-0.23438 -1.2344,-0.23438c-0.44922,0 -0.87109,0.04688 -1.2656,0.14062c-0.38672,0.09375 -0.74609,0.23047 -1.0781,0.40625l0,-1.6094c0.44531,-0.10156 0.89844,-0.17969 1.3594,-0.23438c0.45703,-0.0625 0.91406,-0.09375 1.375,-0.09375c1.1875,0 2.0391,0.23438 2.5625,0.70312c0.53125,0.46875 0.79688,1.2305 0.79688,2.2812l-0.0001,0.00015z" id="svg_4"/>
  </symbol>
  <symbol id="b" overflow="visible">
   <path d="m3.3125,-8.4688l0,1.875l2.1719,0l0,1.5l-2.1719,0l0,2.7969c0,0.3125 0.0625,0.52344 0.1875,0.625c0.125,0.10547 0.36328,0.15625 0.71875,0.15625l1.0938,0l0,1.5156l-1.8125,0c-0.83594,0 -1.4297,-0.17188 -1.7812,-0.51562c-0.34375,-0.35156 -0.51562,-0.94531 -0.51562,-1.7812l0,-2.7969l-1.0469,0l0,-1.5l1.0469,0l0,-1.875l2.10927,-0.00003z" id="svg_5"/>
  </symbol>
  <symbol id="j" overflow="visible">
   <path d="m5.5,-5.625l0,-3.5469l2.125,0l0,9.1719l-2.125,0l0,-0.95312c-0.29297,0.38672 -0.61719,0.67188 -0.96875,0.85938c-0.34375,0.17578 -0.74609,0.26562 -1.2031,0.26562c-0.8125,0 -1.4805,-0.32031 -2,-0.96875c-0.52344,-0.64453 -0.78125,-1.4766 -0.78125,-2.5c0,-1.0078 0.25781,-1.8359 0.78125,-2.4844c0.51953,-0.64453 1.1875,-0.96875 2,-0.96875c0.45703,0 0.85938,0.09375 1.2031,0.28125c0.35156,0.17969 0.67578,0.46094 0.96875,0.84375l0,0.00002zm-1.3906,4.2656c0.44531,0 0.78906,-0.16016 1.0312,-0.48438c0.23828,-0.33203 0.35938,-0.81641 0.35938,-1.4531c0,-0.625 -0.12109,-1.0977 -0.35938,-1.4219c-0.24219,-0.33203 -0.58594,-0.5 -1.0312,-0.5c-0.44922,0 -0.79297,0.16797 -1.0312,0.5c-0.23047,0.32422 -0.34375,0.79688 -0.34375,1.4219c0,0.63672 0.11328,1.1211 0.34375,1.4531c0.23828,0.32422 0.58203,0.48438 1.0312,0.48438z" id="svg_6"/>
  </symbol>
  <symbol id="i" overflow="visible">
   <path d="m4.5312,-1.3594c0.44531,0 0.78516,-0.16016 1.0156,-0.48438c0.23828,-0.33203 0.35938,-0.81641 0.35938,-1.4531c0,-0.625 -0.12109,-1.0977 -0.35938,-1.4219c-0.23047,-0.33203 -0.57031,-0.5 -1.0156,-0.5c-0.46094,0 -0.80859,0.16797 -1.0469,0.5c-0.24219,0.32422 -0.35938,0.79688 -0.35938,1.4219s0.11719,1.1055 0.35938,1.4375c0.23828,0.33594 0.58594,0.5 1.0469,0.5l0,-0.00002zm-1.4062,-4.2656c0.28906,-0.38281 0.61328,-0.66406 0.96875,-0.84375c0.35156,-0.1875 0.75781,-0.28125 1.2188,-0.28125c0.8125,0 1.4766,0.32422 2,0.96875c0.51953,0.64844 0.78125,1.4766 0.78125,2.4844c0,1.0234 -0.26172,1.8555 -0.78125,2.5c-0.52344,0.64844 -1.1875,0.96875 -2,0.96875c-0.46094,0 -0.86719,-0.08984 -1.2188,-0.26562c-0.35547,-0.1875 -0.67969,-0.47266 -0.96875,-0.85938l0,0.95312l-2.1094,0l0,-9.1719l2.1094,0l0,3.54688z" id="svg_7"/>
  </symbol>
  <symbol id="e" overflow="visible">
   <path d="m0.14062,-6.5938l2.1094,0l1.7812,4.4688l1.5,-4.4688l2.1094,0l-2.7656,7.2188c-0.28125,0.72656 -0.60938,1.2383 -0.98438,1.5312c-0.36719,0.30078 -0.85547,0.45312 -1.4688,0.45312l-1.2188,0l0,-1.3906l0.65625,0c0.36328,0 0.625,-0.05859 0.78125,-0.17188c0.16406,-0.11719 0.29688,-0.32031 0.39062,-0.60938l0.0625,-0.1875l-2.95304,-6.84376z" id="svg_8"/>
  </symbol>
  <symbol id="h" overflow="visible">
   <path d="m6.4375,-1.6094l-3.5469,0l-0.54688,1.6094l-2.2812,0l3.25,-8.7969l2.7031,0l3.2656,8.7969l-2.2812,0l-0.56252,-1.6094zm-2.9688,-1.625l2.4062,0l-1.2031,-3.5l-1.2031,3.5z" id="svg_9"/>
  </symbol>
  <symbol id="t" overflow="visible">
   <path d="m1.0156,-6.5938l2.1094,0l0,6.5938l-2.1094,0l0,-6.5938zm0,-2.5781l2.1094,0l0,1.7344l-2.1094,0l0,-1.7344z" id="svg_10"/>
  </symbol>
  <symbol id="s" overflow="visible">
   <path d="m6.1719,-6.3906l0,1.6094c-0.46094,-0.19531 -0.89844,-0.34375 -1.3125,-0.4375c-0.41797,-0.09375 -0.8125,-0.14062 -1.1875,-0.14062c-0.40625,0 -0.71094,0.05469 -0.90625,0.15625c-0.1875,0.10547 -0.28125,0.26172 -0.28125,0.46875c0,0.16797 0.07031,0.29688 0.21875,0.39062c0.14453,0.08594 0.41016,0.14844 0.79688,0.1875l0.375,0.0625c1.0703,0.13672 1.7969,0.35938 2.1719,0.67188s0.5625,0.80859 0.5625,1.4844c0,0.69922 -0.26172,1.2266 -0.78125,1.5781c-0.52344,0.35547 -1.293,0.53125 -2.3125,0.53125c-0.4375,0 -0.89062,-0.03906 -1.3594,-0.10938c-0.46875,-0.0625 -0.94922,-0.16016 -1.4375,-0.29688l0,-1.6094c0.42578,0.21094 0.85938,0.36719 1.2969,0.46875c0.44531,0.09375 0.89453,0.14062 1.3438,0.14062c0.41406,0 0.72656,-0.05469 0.9375,-0.17188c0.20703,-0.11328 0.3125,-0.28125 0.3125,-0.5c0,-0.1875 -0.07422,-0.32812 -0.21875,-0.42188c-0.14844,-0.09375 -0.43359,-0.16406 -0.85938,-0.21875l-0.375,-0.04688c-0.9375,-0.11328 -1.5938,-0.32812 -1.9688,-0.64062c-0.375,-0.32031 -0.5625,-0.80469 -0.5625,-1.4531c0,-0.70703 0.23828,-1.2266 0.71875,-1.5625c0.47656,-0.33203 1.2109,-0.5 2.2031,-0.5c0.38281,0 0.78906,0.03125 1.2188,0.09375c0.42578,0.05469 0.89453,0.14062 1.4062,0.26562z" id="svg_11"/>
  </symbol>
  <symbol id="g" overflow="visible">
   <path d="m7.6406,-4.0156l0,4.0156l-2.1094,0l0,-3.0625c0,-0.57031 -0.01562,-0.96875 -0.04687,-1.1875c-0.02344,-0.21875 -0.0625,-0.37891 -0.125,-0.48438c-0.08594,-0.13281 -0.19923,-0.23828 -0.34375,-0.3125c-0.13673,-0.08203 -0.29688,-0.125 -0.48438,-0.125c-0.4375,0 -0.78125,0.17188 -1.0312,0.51562s-0.375,0.8125 -0.375,1.4062l0,3.25l-2.1094,0l0,-9.1719l2.1094,0l0,3.5469c0.3125,-0.38281 0.64453,-0.66406 1,-0.84375c0.36327,-0.1875 0.75781,-0.28125 1.1875,-0.28125c0.76952,0 1.34769,0.23438 1.7344,0.70312c0.39452,0.46094 0.59375,1.1367 0.59375,2.0312l-0.00005,0.00014z" id="svg_12"/>
  </symbol>
  <symbol id="r" overflow="visible">
   <path d="m5.3594,-9.1719l0,1.3906l-1.1719,0c-0.30469,0 -0.51172,0.05859 -0.625,0.17188c-0.11719,0.10547 -0.17188,0.28906 -0.17188,0.54688l0,0.46875l1.7969,0l0,1.5l-1.7969,0l0,5.0938l-2.1094,0l0,-5.0938l-1.0469,0l0,-1.5l1.0469,0l0,-0.46875c0,-0.71875 0.19531,-1.25 0.59375,-1.5938c0.40625,-0.34375 1.0234,-0.51562 1.8594,-0.51562l1.62503,0.00006z" id="svg_13"/>
  </symbol>
  <symbol id="d" overflow="visible">
   <path d="m4.1562,-5.25c-0.46875,0 -0.82812,0.17188 -1.0781,0.51562c-0.24219,0.33594 -0.35938,0.8125 -0.35938,1.4375c0,0.63672 0.11719,1.1211 0.35938,1.4531c0.25,0.33594 0.60938,0.5 1.0781,0.5c0.45703,0 0.80469,-0.16406 1.0469,-0.5c0.25,-0.33203 0.375,-0.81641 0.375,-1.4531c0,-0.625 -0.125,-1.1016 -0.375,-1.4375c-0.24219,-0.34375 -0.58984,-0.51562 -1.0469,-0.51562zm0,-1.5c1.1328,0 2.0195,0.30859 2.6562,0.92188c0.63281,0.60547 0.95312,1.4492 0.95312,2.5312c0,1.0859 -0.32031,1.9336 -0.95312,2.5469c-0.63672,0.61719 -1.5234,0.92188 -2.6562,0.92188c-1.1484,0 -2.043,-0.30469 -2.6875,-0.92188c-0.63672,-0.61328 -0.95312,-1.4609 -0.95312,-2.5469c0,-1.082 0.31641,-1.9258 0.95312,-2.5312c0.64453,-0.61328 1.5391,-0.92188 2.6875,-0.92188z" id="svg_14"/>
  </symbol>
  <symbol id="q" overflow="visible">
   <path d="m7.125,-5.5c0.26953,-0.40625 0.58594,-0.71094 0.95312,-0.92188c0.36328,-0.21875 0.76562,-0.32812 1.2031,-0.32812c0.75781,0 1.3359,0.23438 1.7344,0.70312c0.39453,0.46094 0.59375,1.1367 0.59375,2.0312l0,4.0156l-2.1094,0l0,-3.4375l0,-0.15625l0,-0.23438c0,-0.46875 -0.07031,-0.80469 -0.20312,-1.0156c-0.13672,-0.21875 -0.35547,-0.32812 -0.65625,-0.32812c-0.40625,0 -0.71875,0.16797 -0.9375,0.5c-0.21875,0.33594 -0.32812,0.8125 -0.32812,1.4375l0,3.2344l-2.125,0l0,-3.4375c0,-0.72656 -0.0625,-1.1953 -0.1875,-1.4062c-0.125,-0.21875 -0.35156,-0.32812 -0.67188,-0.32812c-0.40625,0 -0.71875,0.16797 -0.9375,0.5c-0.21875,0.33594 -0.32812,0.80859 -0.32812,1.4219l0,3.25l-2.125,0l0,-6.5938l2.125,0l0,0.96875c0.25781,-0.375 0.55469,-0.65625 0.89062,-0.84375c0.33203,-0.1875 0.70312,-0.28125 1.1094,-0.28125c0.45703,0 0.85938,0.10938 1.2031,0.32812c0.35156,0.21875 0.61719,0.52734 0.79688,0.92188l0.00002,0z" id="svg_15"/>
  </symbol>
  <symbol id="p" overflow="visible">
   <path d="m1.1094,-8.7969l2.5312,0l3.2031,6.0312l0,-6.0312l2.1406,0l0,8.7969l-2.5312,0l-3.2031,-6.0312l0,6.0312l-2.1406,0l0,-8.7969z" id="svg_16"/>
  </symbol>
  <symbol id="o" overflow="visible">
   <path d="m0.9375,-2.5625l0,-4.0312l2.125,0l0,0.65625c0,0.35547 -0.00781,0.80469 -0.01562,1.3438l0,1.0781c0,0.53125 0.01562,0.91797 0.04687,1.1562c0.03125,0.23047 0.07813,0.39844 0.14062,0.5c0.08203,0.13672 0.19141,0.24609 0.32812,0.32812c0.14453,0.07422 0.30469,0.10938 0.48438,0.10938c0.44531,0 0.79688,-0.16406 1.0469,-0.5c0.25,-0.34375 0.375,-0.81641 0.375,-1.4219l0,-3.25l2.1094,0l0,6.5938l-2.1094,0l0,-0.95312c-0.32422,0.38672 -0.66406,0.67188 -1.0156,0.85938c-0.35547,0.17578 -0.74609,0.26562 -1.1719,0.26562c-0.76172,0 -1.3438,-0.23438 -1.75,-0.70312c-0.39844,-0.46875 -0.59375,-1.1445 -0.59375,-2.0312l-0.00002,-0.00011z" id="svg_17"/>
  </symbol>
  <symbol id="n" overflow="visible">
   <path d="m7.6406,-4.0156l0,4.0156l-2.1094,0l0,-3.0781c0,-0.5625 -0.01562,-0.95312 -0.04687,-1.1719c-0.02344,-0.21875 -0.0625,-0.37891 -0.125,-0.48438c-0.08594,-0.13281 -0.19923,-0.23828 -0.34375,-0.3125c-0.13673,-0.08203 -0.29688,-0.125 -0.48438,-0.125c-0.4375,0 -0.78125,0.17188 -1.0312,0.51562s-0.375,0.8125 -0.375,1.4062l0,3.25l-2.1094,0l0,-6.5938l2.1094,0l0,0.96875c0.3125,-0.38281 0.64453,-0.66406 1,-0.84375c0.36327,-0.1875 0.75781,-0.28125 1.1875,-0.28125c0.76952,0 1.34769,0.23438 1.7344,0.70312c0.39452,0.46094 0.59375,1.1367 0.59375,2.0312l-0.00005,0.00019z" id="svg_18"/>
  </symbol>
  <symbol id="m" overflow="visible">
   <path d="m1.1094,-8.7969l3.7656,0c1.1133,0 1.9688,0.25 2.5625,0.75c0.60156,0.5 0.90625,1.2109 0.90625,2.125c0,0.91797 -0.30469,1.625 -0.90625,2.125c-0.59375,0.5 -1.4492,0.75 -2.5625,0.75l-1.5,0l0,3.0469l-2.2656,0l0,-8.7969zm2.2656,1.6406l0,2.4688l1.25,0c0.44531,0 0.78516,-0.10938 1.0156,-0.32812c0.23828,-0.21875 0.35938,-0.51953 0.35938,-0.90625c0,-0.39453 -0.12109,-0.69531 -0.35938,-0.90625c-0.23047,-0.21875 -0.57031,-0.32812 -1.0156,-0.32812l-1.25,-0.00006z" id="svg_19"/>
  </symbol>
  <symbol id="l" overflow="visible">
   <path d="m1.0156,-6.5938l2.1094,0l0,6.4688c0,0.88281 -0.21484,1.5625 -0.64062,2.0312c-0.42969,0.46875 -1.043,0.70312 -1.8438,0.70312l-1.0469,0l0,-1.3906l0.375,0c0.39453,0 0.66406,-0.09375 0.8125,-0.28125c0.15625,-0.17969 0.23438,-0.53125 0.23438,-1.0625l0.00004,-6.46877zm0,-2.5781l2.1094,0l0,1.7344l-2.1094,0l0,-1.7344z" id="svg_20"/>
  </symbol>
  <symbol id="k" overflow="visible">
   <path d="m6.3438,-6.3906l0,1.7188c-0.29297,-0.19531 -0.58594,-0.34375 -0.875,-0.4375c-0.28125,-0.09375 -0.57812,-0.14062 -0.89062,-0.14062c-0.58594,0 -1.043,0.17188 -1.375,0.51562c-0.32422,0.34375 -0.48438,0.82422 -0.48438,1.4375c0,0.61719 0.16016,1.0938 0.48438,1.4375c0.33203,0.34375 0.78906,0.51562 1.375,0.51562c0.33203,0 0.64453,-0.04687 0.9375,-0.14062c0.30078,-0.09375 0.57812,-0.23828 0.82812,-0.4375l0,1.7344c-0.33594,0.11719 -0.67188,0.20312 -1.0156,0.26562c-0.33594,0.0625 -0.67188,0.09375 -1.0156,0.09375c-1.1875,0 -2.1211,-0.30078 -2.7969,-0.90625c-0.66797,-0.61328 -1,-1.4688 -1,-2.5625c0,-1.082 0.33203,-1.9258 1,-2.5312c0.67578,-0.61328 1.6094,-0.92188 2.7969,-0.92188c0.34375,0 0.67969,0.03125 1.0156,0.09375c0.34375,0.05469 0.67969,0.14062 1.0156,0.26562l0,-0.00011z" id="svg_21"/>
  </symbol>
 </defs>
 <g>
  <title>Layer 1</title>
  <g id="svg_22">
   <path fill="#ffb689" d="m498.41,70.172c-86.898,-86.898 -229.31,-86.898 -316.21,0c-74.828,74.828 -86.898,190.69 -33.793,277.59l-127.93,125.52c-19.309,21.723 -19.309,55.516 0,74.828c21.723,21.723 55.516,21.723 77.242,0l125.52,-125.52c86.898,53.102 200.34,41.035 275.17,-33.793c89.309,-86.898 89.309,-229.31 0,-318.62l0.001,-0.005zm-45.863,48.277c60.344,62.758 60.344,161.72 0,222.07c-62.758,62.758 -161.72,62.758 -224.48,0c-60.344,-60.344 -60.344,-159.31 0,-222.07c62.758,-60.344 161.72,-60.344 224.48,0z" id="svg_23"/>
   <path fill="#ffb689" d="m435.66,224.66c0,24.137 38.621,21.723 36.207,-2.4141c-2.4141,-33.793 -16.898,-62.758 -38.621,-84.484c-21.723,-24.137 -53.102,-36.207 -84.484,-38.621c-24.137,-2.4141 -26.551,33.793 -2.4141,36.207c21.723,2.4141 43.449,12.07 60.344,28.965c16.898,16.898 26.551,36.207 28.965,60.344l0.0031,0.0031z" id="svg_24"/>
   <use fill="#ffb689" x="6" y="601.20703" xlink:href="#u" id="svg_25"/>
   <use fill="#ffb689" x="14.85547" y="601.20703" xlink:href="#c" id="svg_26"/>
   <use fill="#ffb689" x="20.80859" y="601.20703" xlink:href="#a" id="svg_27"/>
   <use fill="#ffb689" x="28.99609" y="601.20703" xlink:href="#f" id="svg_28"/>
   <use fill="#ffb689" x="37.14063" y="601.20703" xlink:href="#b" id="svg_29"/>
   <use fill="#ffb689" x="42.90625" y="601.20703" xlink:href="#a" id="svg_30"/>
   <use fill="#ffb689" x="51.09375" y="601.20703" xlink:href="#j" id="svg_31"/>
   <use fill="#ffb689" x="63.93359" y="601.20703" xlink:href="#i" id="svg_32"/>
   <use fill="#ffb689" x="72.57422" y="601.20703" xlink:href="#e" id="svg_33"/>
   <use fill="#ffb689" x="84.64453" y="601.20703" xlink:href="#h" id="svg_34"/>
   <use fill="#ffb689" x="93.98438" y="601.20703" xlink:href="#t" id="svg_35"/>
   <use fill="#ffb689" x="98.12109" y="601.20703" xlink:href="#s" id="svg_36"/>
   <use fill="#ffb689" x="105.30469" y="601.20703" xlink:href="#e" id="svg_37"/>
   <use fill="#ffb689" x="113.17188" y="601.20703" xlink:href="#f" id="svg_38"/>
   <use fill="#ffb689" x="121.31641" y="601.20703" xlink:href="#g" id="svg_39"/>
   <use fill="#ffb689" x="6" y="613.27734" xlink:href="#r" id="svg_40"/>
   <use fill="#ffb689" x="11.25" y="613.27734" xlink:href="#c" id="svg_41"/>
   <use fill="#ffb689" x="17.20313" y="613.27734" xlink:href="#d" id="svg_42"/>
   <use fill="#ffb689" x="25.49609" y="613.27734" xlink:href="#q" id="svg_43"/>
   <use fill="#ffb689" x="42.27344" y="613.27734" xlink:href="#b" id="svg_44"/>
   <use fill="#ffb689" x="48.03906" y="613.27734" xlink:href="#g" id="svg_45"/>
   <use fill="#ffb689" x="56.63281" y="613.27734" xlink:href="#a" id="svg_46"/>
   <use fill="#ffb689" x="69.01953" y="613.27734" xlink:href="#p" id="svg_47"/>
   <use fill="#ffb689" x="79.12109" y="613.27734" xlink:href="#d" id="svg_48"/>
   <use fill="#ffb689" x="87.41406" y="613.27734" xlink:href="#o" id="svg_49"/>
   <use fill="#ffb689" x="96.00391" y="613.27734" xlink:href="#n" id="svg_50"/>
   <use fill="#ffb689" x="108.79688" y="613.27734" xlink:href="#m" id="svg_51"/>
   <use fill="#ffb689" x="117.64453" y="613.27734" xlink:href="#c" id="svg_52"/>
   <use fill="#ffb689" x="123.59766" y="613.27734" xlink:href="#d" id="svg_53"/>
   <use fill="#ffb689" x="131.88672" y="613.27734" xlink:href="#l" id="svg_54"/>
   <use fill="#ffb689" x="136.02344" y="613.27734" xlink:href="#a" id="svg_55"/>
   <use fill="#ffb689" x="144.21094" y="613.27734" xlink:href="#k" id="svg_56"/>
   <use fill="#ffb689" x="151.36328" y="613.27734" xlink:href="#b" id="svg_57"/>
  </g>
 </g>
</svg>