<?xml version="1.0"?>
<svg width="700" height="500" xmlns="http://www.w3.org/2000/svg" xmlns:svg="http://www.w3.org/2000/svg" xmlns:xlink="http://www.w3.org/1999/xlink" version="1.1">
 <defs>
  <symbol id="u" overflow="visible">
   <path d="m18.77,-1.13c-0.97,0.5 -1.98,0.88 -3.04,1.13c-1.04,0.26 -2.13,0.39 -3.28,0.39c-3.39,0 -6.09,-0.94 -8.07,-2.84c-2,-1.91 -2.99,-4.49 -2.99,-7.74c0,-3.26 0.99,-5.83 2.99,-7.73c1.98,-1.91 4.68,-2.86 8.07,-2.86c1.15,0 2.24,0.13 3.28,0.39c1.06,0.25 2.07,0.62 3.04,1.12l0,4.22c-0.98,-0.65 -1.95,-1.14 -2.89,-1.45c-0.95,-0.31 -1.95,-0.47 -3,-0.47c-1.88,0 -3.36,0.61 -4.43,1.81c-1.07,1.2 -1.61,2.86 -1.61,4.97c0,2.11 0.54,3.76 1.61,4.97c1.07,1.2 2.55,1.8 4.43,1.8c1.05,0 2.05,-0.15 3,-0.45c0.94,-0.32 1.91,-0.81 2.89,-1.47l0,4.21z" id="svg_1"/>
  </symbol>
  <symbol id="d" overflow="visible">
   <path d="m13.73,-11.14c-0.43,-0.2 -0.87,-0.34 -1.29,-0.44c-0.42,-0.1 -0.84,-0.15 -1.27,-0.15c-1.26,0 -2.23,0.4 -2.9,1.21c-0.68,0.81 -1.02,1.96 -1.02,3.46l0,7.06l-4.89,0l0,-15.31l4.89,0l0,2.51c0.62,-1 1.34,-1.72 2.16,-2.18c0.82,-0.47 1.8,-0.71 2.93,-0.71c0.17,0 0.35,0.01 0.53,0.03c0.2,0.02 0.48,0.04 0.85,0.08l0.01,4.44z" id="svg_2"/>
  </symbol>
  <symbol id="a" overflow="visible">
   <path d="m17.64,-7.7l0,1.4l-11.45,0c0.12,1.15 0.54,2.01 1.25,2.58c0.71,0.58 1.7,0.86 2.98,0.86c1.03,0 2.08,-0.15 3.16,-0.45c1.08,-0.32 2.19,-0.78 3.33,-1.39l0,3.76c-1.16,0.44 -2.32,0.77 -3.47,0.99c-1.16,0.22 -2.31,0.34 -3.47,0.34c-2.77,0 -4.93,-0.7 -6.47,-2.11c-1.53,-1.41 -2.3,-3.38 -2.3,-5.92c0,-2.5 0.76,-4.46 2.27,-5.89c1.51,-1.44 3.58,-2.16 6.22,-2.16c2.4,0 4.33,0.73 5.78,2.19c1.44,1.45 2.17,3.38 2.17,5.8l0,0zm-5.03,-1.63c0,-0.92 -0.27,-1.67 -0.81,-2.23c-0.55,-0.57 -1.25,-0.86 -2.13,-0.86c-0.95,0 -1.72,0.26 -2.31,0.79s-0.97,1.3 -1.11,2.3l6.36,0z" id="svg_3"/>
  </symbol>
  <symbol id="k" overflow="visible">
   <path d="m9.22,-6.89c-1.02,0 -1.79,0.17 -2.31,0.52c-0.52,0.34 -0.77,0.85 -0.77,1.53c0,0.62 0.21,1.11 0.63,1.47c0.41,0.34 0.98,0.51 1.71,0.51c0.93,0 1.71,-0.33 2.33,-0.98c0.64,-0.67 0.96,-1.5 0.96,-2.49l0,-0.56l-2.55,0zm7.47,-1.84l0,8.73l-4.92,0l0,-2.27c-0.66,0.93 -1.4,1.61 -2.22,2.04c-0.83,0.41 -1.83,0.62 -3,0.62c-1.59,0 -2.87,-0.46 -3.86,-1.37c-0.99,-0.93 -1.49,-2.13 -1.49,-3.61c0,-1.79 0.62,-3.11 1.85,-3.94c1.24,-0.85 3.18,-1.27 5.83,-1.27l2.89,0l0,-0.39c0,-0.77 -0.31,-1.33 -0.93,-1.69c-0.61,-0.36 -1.57,-0.54 -2.86,-0.54c-1.05,0 -2.03,0.1 -2.93,0.31c-0.9,0.21 -1.73,0.52 -2.5,0.94l0,-3.74c1.04,-0.25 2.08,-0.44 3.14,-0.57c1.06,-0.14 2.12,-0.21 3.18,-0.21c2.76,0 4.75,0.55 5.97,1.64c1.23,1.09 1.85,2.86 1.85,5.32l0,0z" id="svg_4"/>
  </symbol>
  <symbol id="c" overflow="visible">
   <path d="m7.7,-19.66l0,4.35l5.05,0l0,3.5l-5.05,0l0,6.5c0,0.71 0.14,1.19 0.42,1.44s0.84,0.37 1.68,0.37l2.51,0l0,3.5l-4.19,0c-1.93,0 -3.31,-0.4 -4.12,-1.2c-0.8,-0.82 -1.2,-2.18 -1.2,-4.11l0,-6.5l-2.43,0l0,-3.5l2.43,0l0,-4.35l4.9,0z" id="svg_5"/>
  </symbol>
  <symbol id="j" overflow="visible">
   <path d="m12.77,-13.08l0,-8.2l4.92,0l0,21.28l-4.92,0l0,-2.22c-0.67,0.91 -1.41,1.57 -2.22,1.99s-1.76,0.62 -2.83,0.62c-1.89,0 -3.43,-0.75 -4.64,-2.25c-1.21,-1.5 -1.81,-3.43 -1.81,-5.78c0,-2.36 0.6,-4.3 1.81,-5.8c1.21,-1.5 2.75,-2.25 4.64,-2.25c1.06,0 2,0.22 2.81,0.64c0.82,0.43 1.57,1.09 2.24,1.97l0,0zm-3.22,9.92c1.04,0 1.83,-0.38 2.39,-1.14c0.55,-0.77 0.83,-1.88 0.83,-3.34c0,-1.46 -0.28,-2.57 -0.83,-3.33c-0.56,-0.77 -1.35,-1.15 -2.39,-1.15c-1.05,0 -1.84,0.38 -2.39,1.15c-0.56,0.76 -0.83,1.87 -0.83,3.33c0,1.46 0.27,2.57 0.83,3.34c0.55,0.77 1.34,1.14 2.39,1.14z" id="svg_6"/>
  </symbol>
  <symbol id="i" overflow="visible">
   <path d="m10.5,-3.16c1.05,0 1.85,-0.38 2.41,-1.14c0.55,-0.77 0.82,-1.88 0.82,-3.34c0,-1.46 -0.27,-2.57 -0.82,-3.33c-0.56,-0.77 -1.36,-1.15 -2.41,-1.15c-1.05,0 -1.86,0.38 -2.42,1.15c-0.56,0.77 -0.83,1.88 -0.83,3.33c0,1.45 0.27,2.56 0.83,3.33c0.56,0.77 1.37,1.15 2.42,1.15l0,0zm-3.25,-9.92c0.68,-0.88 1.42,-1.54 2.23,-1.97c0.82,-0.42 1.77,-0.64 2.83,-0.64c1.9,0 3.45,0.75 4.66,2.25c1.21,1.5 1.81,3.44 1.81,5.8c0,2.35 -0.6,4.28 -1.81,5.78c-1.21,1.5 -2.76,2.25 -4.66,2.25c-1.06,0 -2.01,-0.21 -2.83,-0.62c-0.81,-0.43 -1.55,-1.09 -2.23,-1.99l0,2.22l-4.89,0l0,-21.28l4.89,0l0,8.2z" id="svg_7"/>
  </symbol>
  <symbol id="h" overflow="visible">
   <path d="m0.34,-15.31l4.89,0l4.13,10.39l3.5,-10.39l4.89,0l-6.44,16.76c-0.65,1.7 -1.4,2.89 -2.26,3.57c-0.87,0.68 -2,1.03 -3.41,1.03l-2.84,0l0,-3.22l1.53,0c0.83,0 1.44,-0.14 1.81,-0.41c0.38,-0.26 0.68,-0.73 0.89,-1.4l0.14,-0.43l-6.83,-15.9z" id="svg_8"/>
  </symbol>
  <symbol id="g" overflow="visible">
   <path d="m2.58,-20.41l5.25,0l0,20.41l-5.25,0l0,-20.41z" id="svg_9"/>
  </symbol>
  <symbol id="f" overflow="visible">
   <path d="m14.72,-14.83l0,3.99c-0.66,-0.46 -1.33,-0.8 -2,-1.02c-0.67,-0.22 -1.36,-0.33 -2.08,-0.33c-1.37,0 -2.43,0.41 -3.2,1.21c-0.76,0.79 -1.14,1.9 -1.14,3.34c0,1.43 0.38,2.54 1.14,3.34c0.77,0.8 1.83,1.19 3.2,1.19c0.76,0 1.49,-0.11 2.17,-0.33c0.69,-0.22 1.32,-0.56 1.91,-1.01l0,4c-0.76,0.28 -1.54,0.49 -2.33,0.62c-0.78,0.15 -1.57,0.22 -2.37,0.22c-2.77,0 -4.93,-0.71 -6.49,-2.12c-1.55,-1.42 -2.33,-3.39 -2.33,-5.91c0,-2.53 0.78,-4.5 2.33,-5.92c1.56,-1.42 3.72,-2.13 6.49,-2.13c0.8,0 1.59,0.08 2.37,0.22c0.78,0.14 1.56,0.35 2.33,0.64l0,0z" id="svg_10"/>
  </symbol>
  <symbol id="b" overflow="visible">
   <path d="m9.64,-12.19c-1.09,0 -1.91,0.39 -2.48,1.17c-0.58,0.79 -0.86,1.91 -0.86,3.38s0.28,2.59 0.86,3.37c0.57,0.78 1.39,1.16 2.48,1.16c1.06,0 1.88,-0.38 2.44,-1.16c0.57,-0.78 0.86,-1.9 0.86,-3.37s-0.29,-2.59 -0.86,-3.38c-0.56,-0.78 -1.38,-1.17 -2.44,-1.17zm0,-3.5c2.63,0 4.69,0.72 6.17,2.14c1.48,1.42 2.22,3.39 2.22,5.91c0,2.51 -0.74,4.48 -2.22,5.91c-1.48,1.41 -3.54,2.12 -6.17,2.12c-2.65,0 -4.71,-0.71 -6.2,-2.12c-1.49,-1.43 -2.24,-3.4 -2.24,-5.91c0,-2.52 0.75,-4.49 2.24,-5.91c1.49,-1.42 3.55,-2.14 6.2,-2.14z" id="svg_11"/>
  </symbol>
  <symbol id="e" overflow="visible">
   <path d="m17.75,-9.33l0,9.33l-4.92,0l0,-7.14c0,-1.32 -0.03,-2.24 -0.1,-2.74s-0.16,-0.86 -0.31,-1.1c-0.19,-0.32 -0.45,-0.56 -0.78,-0.74c-0.32,-0.17 -0.69,-0.26 -1.11,-0.26c-1.02,0 -1.82,0.39 -2.41,1.18c-0.58,0.78 -0.87,1.87 -0.87,3.27l0,7.53l-4.89,0l0,-15.31l4.89,0l0,2.23c0.74,-0.88 1.52,-1.54 2.34,-1.97c0.84,-0.42 1.75,-0.64 2.75,-0.64c1.77,0 3.12,0.55 4.04,1.64c0.91,1.09 1.37,2.66 1.37,4.72l0,0z" id="svg_12"/>
  </symbol>
  <symbol id="t" overflow="visible">
   <path d="m7.83,-16.44l0,12.46l1.89,0c2.15,0 3.8,-0.54 4.94,-1.6c1.13,-1.06 1.7,-2.61 1.7,-4.65c0,-2.02 -0.57,-3.56 -1.7,-4.61c-1.13,-1.07 -2.78,-1.6 -4.94,-1.6l-1.89,0zm-5.25,-3.97l5.55,0c3.09,0 5.39,0.22 6.92,0.66c1.52,0.44 2.82,1.19 3.9,2.25c0.96,0.92 1.67,1.98 2.13,3.19c0.47,1.2 0.7,2.56 0.7,4.08c0,1.54 -0.23,2.91 -0.7,4.12c-0.46,1.21 -1.17,2.28 -2.13,3.2c-1.09,1.06 -2.4,1.81 -3.93,2.25c-1.54,0.44 -3.83,0.66 -6.89,0.66l-5.55,0l0,-20.41z" id="svg_13"/>
  </symbol>
  <symbol id="s" overflow="visible">
   <path d="m7.25,-2.22l0,8.05l-4.89,0l0,-21.14l4.89,0l0,2.23c0.68,-0.88 1.42,-1.54 2.23,-1.97c0.82,-0.42 1.77,-0.64 2.83,-0.64c1.9,0 3.45,0.75 4.66,2.25c1.21,1.5 1.81,3.44 1.81,5.8c0,2.35 -0.6,4.28 -1.81,5.78c-1.21,1.5 -2.76,2.25 -4.66,2.25c-1.06,0 -2.01,-0.21 -2.83,-0.62c-0.81,-0.43 -1.55,-1.09 -2.23,-1.99l0,0zm3.25,-9.91c-1.05,0 -1.86,0.39 -2.42,1.16c-0.56,0.77 -0.83,1.88 -0.83,3.33c0,1.45 0.27,2.56 0.83,3.33c0.56,0.77 1.37,1.15 2.42,1.15c1.05,0 1.85,-0.38 2.41,-1.14c0.55,-0.77 0.82,-1.88 0.82,-3.34c0,-1.46 -0.27,-2.57 -0.82,-3.33c-0.56,-0.77 -1.36,-1.16 -2.41,-1.16l0,0z" id="svg_14"/>
  </symbol>
  <symbol id="r" overflow="visible">
   <path d="m12.42,-21.28l0,3.22l-2.7,0c-0.69,0 -1.17,0.12 -1.45,0.37c-0.28,0.25 -0.41,0.69 -0.41,1.32l0,1.06l4.19,0l0,3.5l-4.19,0l0,11.81l-4.89,0l0,-11.81l-2.44,0l0,-3.5l2.44,0l0,-1.06c0,-1.67 0.46,-2.9 1.39,-3.71c0.93,-0.8 2.37,-1.2 4.33,-1.2l3.73,0z" id="svg_15"/>
  </symbol>
  <symbol id="q" overflow="visible">
   <path d="m16.55,-12.77c0.61,-0.94 1.34,-1.67 2.2,-2.17c0.85,-0.5 1.79,-0.75 2.81,-0.75c1.76,0 3.1,0.55 4.02,1.64c0.92,1.09 1.39,2.66 1.39,4.72l0,9.33l-4.92,0l0,-7.98l0,-0.36c0,-0.14 0.01,-0.32 0.01,-0.57c0,-1.08 -0.16,-1.86 -0.48,-2.34c-0.31,-0.49 -0.83,-0.73 -1.53,-0.73c-0.93,0 -1.65,0.38 -2.16,1.15c-0.51,0.76 -0.77,1.87 -0.78,3.31l0,7.52l-4.92,0l0,-7.98c0,-1.7 -0.15,-2.79 -0.44,-3.27c-0.29,-0.49 -0.81,-0.73 -1.56,-0.73c-0.94,0 -1.67,0.38 -2.17,1.15c-0.52,0.76 -0.77,1.86 -0.77,3.3l0,7.53l-4.92,0l0,-15.31l4.92,0l0,2.23c0.6,-0.86 1.29,-1.51 2.06,-1.95c0.78,-0.44 1.64,-0.66 2.58,-0.66c1.06,0 2,0.26 2.81,0.77c0.82,0.51 1.43,1.23 1.85,2.15l0,0z" id="svg_16"/>
  </symbol>
  <symbol id="p" overflow="visible">
   <path d="m17.75,-9.33l0,9.33l-4.92,0l0,-7.11c0,-1.34 -0.03,-2.27 -0.1,-2.77s-0.16,-0.86 -0.31,-1.1c-0.19,-0.32 -0.45,-0.56 -0.78,-0.74c-0.32,-0.17 -0.69,-0.26 -1.11,-0.26c-1.02,0 -1.82,0.39 -2.41,1.18c-0.58,0.78 -0.87,1.87 -0.87,3.27l0,7.53l-4.89,0l0,-21.28l4.89,0l0,8.2c0.74,-0.88 1.52,-1.54 2.34,-1.97c0.84,-0.42 1.75,-0.64 2.75,-0.64c1.77,0 3.12,0.55 4.04,1.64c0.91,1.09 1.37,2.66 1.37,4.72l0,0z" id="svg_17"/>
  </symbol>
  <symbol id="o" overflow="visible">
   <path d="m2.58,-20.41l5.87,0l7.43,14l0,-14l4.98,0l0,20.41l-5.88,0l-7.42,-14l0,14l-4.98,0l0,-20.41z" id="svg_18"/>
  </symbol>
  <symbol id="n" overflow="visible">
   <path d="m2.19,-5.97l0,-9.34l4.92,0l0,1.53c0,0.83 -0.01,1.87 -0.02,3.12c-0.01,1.25 -0.01,2.09 -0.01,2.5c0,1.25 0.03,2.14 0.09,2.68c0.07,0.54 0.18,0.93 0.33,1.17c0.21,0.32 0.47,0.57 0.8,0.75c0.32,0.17 0.69,0.25 1.11,0.25c1.02,0 1.82,-0.39 2.4,-1.17c0.58,-0.79 0.88,-1.87 0.88,-3.27l0,-7.56l4.89,0l0,15.31l-4.89,0l0,-2.22c-0.74,0.9 -1.53,1.56 -2.35,1.98c-0.82,0.42 -1.73,0.63 -2.73,0.63c-1.76,0 -3.11,-0.54 -4.03,-1.63c-0.93,-1.08 -1.39,-2.66 -1.39,-4.73l0,0z" id="svg_19"/>
  </symbol>
  <symbol id="m" overflow="visible">
   <path d="m2.58,-20.41l8.73,0c2.6,0 4.58,0.58 5.97,1.74c1.4,1.15 2.1,2.79 2.1,4.92c0,2.14 -0.7,3.78 -2.1,4.94c-1.39,1.15 -3.37,1.73 -5.97,1.73l-3.48,0l0,7.08l-5.25,0l0,-20.41zm5.25,3.82l0,5.7l2.92,0c1.02,0 1.8,-0.25 2.36,-0.75c0.56,-0.5 0.84,-1.2 0.84,-2.11c0,-0.91 -0.28,-1.62 -0.84,-2.11c-0.56,-0.49 -1.34,-0.73 -2.36,-0.73l-2.92,0z" id="svg_20"/>
  </symbol>
  <symbol id="l" overflow="visible">
   <path d="m2.36,-15.31l4.89,0l0,15.03c0,2.05 -0.5,3.62 -1.48,4.7c-0.98,1.08 -2.41,1.63 -4.29,1.63l-2.42,0l0,-3.22l0.86,0c0.93,0 1.56,-0.21 1.91,-0.63c0.35,-0.41 0.53,-1.24 0.53,-2.48l0,-15.03zm0,-5.97l4.89,0l0,4l-4.89,0l0,-4z" id="svg_21"/>
  </symbol>
 </defs>
 <g class="layer">
  <title>Layer 1</title>
  <g id="svg_22" stroke-width="0">
   <path d="m178.76,440.16c1.12,0 1.68,0 2.8,-0.56l82.32,-19.04c2.24,-0.56 3.92,-1.68 5.6,-2.8l250.32,-250.32c14.56,-14.56 14.56,-38.64 0,-53.2l-25.76,-25.76c-14.56,-14.56 -38.64,-14.56 -53.2,0l-250.88,249.76c-1.68,1.68 -2.8,3.36 -2.8,5.6l-19.04,82.88c-1.12,3.92 0,7.84 2.8,10.64c2.24,1.68 5.04,2.8 7.84,2.8l0,0zm277.2,-336.56c6.16,-6.16 15.68,-6.16 21.84,0l25.76,25.76c6.16,6.16 6.16,15.68 0,21.84l-16.8,16.8l-47.6,-47.6l16.8,-16.8zm-32.48,33.04l47.6,47.6l-7.84,7.84l-47.6,-47.6l7.84,-7.84zm-24.08,23.52l47.6,47.6l-179.2,179.2l-47.6,-47.6l179.2,-179.2zm-192.64,197.12l43.68,43.68l-56.56,13.44l12.88,-57.12z" fill="#5b67a2" id="svg_23"/>
   <use fill="#5b67a2" id="svg_24" x="69" xlink:href="#u" y="644"/>
   <use fill="#5b67a2" id="svg_25" x="89.55" xlink:href="#d" y="644"/>
   <use fill="#5b67a2" id="svg_26" x="103.36" xlink:href="#a" y="644"/>
   <use fill="#5b67a2" id="svg_27" x="122.35" xlink:href="#k" y="644"/>
   <use fill="#5b67a2" id="svg_28" x="141.24" xlink:href="#c" y="644"/>
   <use fill="#5b67a2" id="svg_29" x="154.63" xlink:href="#a" y="644"/>
   <use fill="#5b67a2" id="svg_30" x="173.62" xlink:href="#j" y="644"/>
   <use fill="#5b67a2" id="svg_31" x="203.41" xlink:href="#i" y="644"/>
   <use fill="#5b67a2" id="svg_32" x="223.45" xlink:href="#h" y="644"/>
   <use fill="#5b67a2" id="svg_33" x="251.45" xlink:href="#g" y="644"/>
   <use fill="#5b67a2" id="svg_34" x="261.87" xlink:href="#f" y="644"/>
   <use fill="#5b67a2" id="svg_35" x="278.47" xlink:href="#b" y="644"/>
   <use fill="#5b67a2" id="svg_36" x="297.7" xlink:href="#e" y="644"/>
   <use fill="#5b67a2" id="svg_37" x="327.38" xlink:href="#t" y="644"/>
   <use fill="#5b67a2" id="svg_38" x="350.63" xlink:href="#a" y="644"/>
   <use fill="#5b67a2" id="svg_39" x="369.62" xlink:href="#s" y="644"/>
   <use fill="#5b67a2" id="svg_40" x="389.66" xlink:href="#b" y="644"/>
   <use fill="#5b67a2" id="svg_41" x="408.9" xlink:href="#c" y="644"/>
   <use fill="#5b67a2" id="svg_42" x="69" xlink:href="#r" y="672"/>
   <use fill="#5b67a2" id="svg_43" x="81.18" xlink:href="#d" y="672"/>
   <use fill="#5b67a2" id="svg_44" x="94.99" xlink:href="#b" y="672"/>
   <use fill="#5b67a2" id="svg_45" x="114.23" xlink:href="#q" y="672"/>
   <use fill="#5b67a2" id="svg_46" x="153.15" xlink:href="#c" y="672"/>
   <use fill="#5b67a2" id="svg_47" x="166.54" xlink:href="#p" y="672"/>
   <use fill="#5b67a2" id="svg_48" x="186.47" xlink:href="#a" y="672"/>
   <use fill="#5b67a2" id="svg_49" x="215.21" xlink:href="#o" y="672"/>
   <use fill="#5b67a2" id="svg_50" x="238.64" xlink:href="#b" y="672"/>
   <use fill="#5b67a2" id="svg_51" x="257.88" xlink:href="#n" y="672"/>
   <use fill="#5b67a2" id="svg_52" x="277.81" xlink:href="#e" y="672"/>
   <use fill="#5b67a2" id="svg_53" x="307.49" xlink:href="#m" y="672"/>
   <use fill="#5b67a2" id="svg_54" x="328.02" xlink:href="#d" y="672"/>
   <use fill="#5b67a2" id="svg_55" x="341.82" xlink:href="#b" y="672"/>
   <use fill="#5b67a2" id="svg_56" x="361.06" xlink:href="#l" y="672"/>
   <use fill="#5b67a2" id="svg_57" x="370.66" xlink:href="#a" y="672"/>
   <use fill="#5b67a2" id="svg_58" x="389.65" xlink:href="#f" y="672"/>
   <use fill="#5b67a2" id="svg_59" x="406.24" xlink:href="#c" y="672"/>
  </g>
  <path d="m210,338.6" fill="#f9dc02" id="svg_60" opacity="NaN" stroke="#ffffff"/>
 </g>
</svg>