<svg width="629" height="640" xmlns="http://www.w3.org/2000/svg" xmlns:xlink="http://www.w3.org/1999/xlink" stroke="null" style="vector-effect: non-scaling-stroke;" version="1.1">
 <defs stroke="null" style="vector-effect: non-scaling-stroke;">
  <symbol stroke="null" style="vector-effect: non-scaling-stroke;" id="n" overflow="visible">
   <path stroke="null" style="vector-effect: non-scaling-stroke;" d="m36.078,-2.1562c-1.8672,0.96875 -3.8086,1.6992 -5.8281,2.1875c-2.0117,0.48828 -4.1094,0.73438 -6.2969,0.73438c-6.543,0 -11.727,-1.8281 -15.547,-5.4844c-3.8125,-3.6562 -5.7188,-8.6133 -5.7188,-14.875c0,-6.2695 1.9062,-11.234 5.7188,-14.891c3.8203,-3.6562 9.0039,-5.4844 15.547,-5.4844c2.1875,0 4.2852,0.25 6.2969,0.75c2.0195,0.49219 3.9609,1.2148 5.8281,2.1719l0,8.125c-1.875,-1.2812 -3.7266,-2.2188 -5.5469,-2.8125c-1.8242,-0.59375 -3.7461,-0.89062 -5.7656,-0.89062c-3.6172,0 -6.4609,1.1562 -8.5312,3.4688c-2.0625,2.3125 -3.0938,5.5 -3.0938,9.5625c0,4.0547 1.0312,7.2344 3.0938,9.5469c2.0703,2.3125 4.9141,3.4688 8.5312,3.4688c2.0195,0 3.9414,-0.29688 5.7656,-0.89062c1.8203,-0.59375 3.6719,-1.5312 5.5469,-2.8125l0,8.12526z" id="svg_1"/>
  </symbol>
  <symbol stroke="null" style="vector-effect: non-scaling-stroke;" id="i" overflow="visible">
   <path stroke="null" style="vector-effect: non-scaling-stroke;" d="m26.391,-21.422c-0.82422,-0.38281 -1.6406,-0.67188 -2.4531,-0.85938s-1.6328,-0.28125 -2.4531,-0.28125c-2.4297,0 -4.293,0.77734 -5.5938,2.3281c-1.3047,1.5547 -1.9531,3.7773 -1.9531,6.6719l0,13.562l-9.4219,0l0,-29.453l9.4219,0l0,4.8438c1.207,-1.9258 2.5938,-3.332 4.1562,-4.2188c1.5703,-0.88281 3.4531,-1.3281 5.6406,-1.3281c0.32031,0 0.66406,0.01562 1.0312,0.04687c0.36328,0.02344 0.89844,0.07422 1.6094,0.15625l0.0157,8.53161z" id="svg_2"/>
  </symbol>
  <symbol stroke="null" style="vector-effect: non-scaling-stroke;" id="a" overflow="visible">
   <path stroke="null" style="vector-effect: non-scaling-stroke;" d="m33.922,-14.797l0,2.6719l-22.016,0c0.22656,2.2109 1.0234,3.8672 2.3906,4.9688c1.375,1.1055 3.2852,1.6562 5.7344,1.6562c1.9766,0 4.0039,-0.28906 6.0781,-0.875c2.082,-0.58203 4.2188,-1.4727 6.4062,-2.6719l0,7.2656c-2.2188,0.83594 -4.4453,1.4648 -6.6719,1.8906c-2.2305,0.4375 -4.4531,0.65625 -6.6719,0.65625c-5.3359,0 -9.4805,-1.3516 -12.438,-4.0625c-2.9492,-2.707 -4.4219,-6.5078 -4.4219,-11.406c0,-4.8008 1.4453,-8.5781 4.3438,-11.328c2.9062,-2.75 6.8984,-4.125 11.984,-4.125c4.625,0 8.3281,1.3984 11.109,4.1875c2.7812,2.7812 4.1719,6.5078 4.1719,11.172l0.0017,-0.00045zm-9.6875,-3.1406c0,-1.7812 -0.52344,-3.2188 -1.5625,-4.3125c-1.043,-1.0938 -2.4023,-1.6406 -4.0781,-1.6406c-1.8242,0 -3.3086,0.51172 -4.4531,1.5312c-1.1367,1.0234 -1.8438,2.4961 -2.125,4.4219l12.2187,0z" id="svg_3"/>
  </symbol>
  <symbol stroke="null" style="vector-effect: non-scaling-stroke;" id="h" overflow="visible">
   <path stroke="null" style="vector-effect: non-scaling-stroke;" d="m17.719,-13.25c-1.9609,0 -3.4375,0.33594 -4.4375,1c-0.99219,0.66797 -1.4844,1.6484 -1.4844,2.9375c0,1.1992 0.39844,2.1367 1.2031,2.8125c0.80078,0.66797 1.9102,1 3.3281,1c1.7695,0 3.2578,-0.63281 4.4688,-1.9062c1.207,-1.2695 1.8125,-2.8594 1.8125,-4.7656l0,-1.0781l-4.8906,-0.0001zm14.375,-3.5469l0,16.797l-9.4844,0l0,-4.3594c-1.2617,1.7812 -2.6836,3.0859 -4.2656,3.9062c-1.5742,0.8125 -3.4922,1.2188 -5.75,1.2188c-3.0547,0 -5.5312,-0.89062 -7.4375,-2.6719c-1.8984,-1.7812 -2.8438,-4.0859 -2.8438,-6.9219c0,-3.457 1.1875,-5.9883 3.5625,-7.5938c2.375,-1.6133 6.1016,-2.4219 11.188,-2.4219l5.5469,0l0,-0.75c0,-1.4883 -0.58984,-2.5781 -1.7656,-3.2656c-1.168,-0.6875 -2.9961,-1.0312 -5.4844,-1.0312c-2.0234,0 -3.9023,0.20312 -5.6406,0.60938c-1.7305,0.39844 -3.3398,0.99609 -4.8281,1.7969l0,-7.1719c2.0078,-0.48828 4.0312,-0.85938 6.0625,-1.1094c2.0391,-0.25781 4.0781,-0.39062 6.1094,-0.39062c5.3125,0 9.1445,1.0469 11.5,3.1406c2.3516,2.0938 3.5312,5.5 3.5312,10.219l-0.0005,-0.00026z" id="svg_4"/>
  </symbol>
  <symbol stroke="null" style="vector-effect: non-scaling-stroke;" id="g" overflow="visible">
   <path stroke="null" style="vector-effect: non-scaling-stroke;" d="m14.797,-37.812l0,8.3594l9.7031,0l0,6.7344l-9.7031,0l0,12.484c0,1.375 0.26953,2.3047 0.8125,2.7812c0.55078,0.48047 1.6289,0.71875 3.2344,0.71875l4.8438,0l0,6.7344l-8.0781,0c-3.7109,0 -6.3398,-0.77344 -7.8906,-2.3281c-1.5547,-1.5508 -2.3281,-4.1875 -2.3281,-7.9062l0,-12.484l-4.6875,0l0,-6.7344l4.6875,0l0,-8.3594l9.4061,-0.00005z" id="svg_5"/>
  </symbol>
  <symbol stroke="null" style="vector-effect: non-scaling-stroke;" id="f" overflow="visible">
   <path stroke="null" style="vector-effect: non-scaling-stroke;" d="m24.562,-25.141l0,-15.766l9.4531,0l0,40.906l-9.4531,0l0,-4.2656c-1.3047,1.7422 -2.7344,3.0156 -4.2969,3.8281c-1.5547,0.80078 -3.3555,1.2031 -5.4062,1.2031c-3.6367,0 -6.6211,-1.4414 -8.9531,-4.3281c-2.3242,-2.8828 -3.4844,-6.5977 -3.4844,-11.141c0,-4.5312 1.1602,-8.2383 3.4844,-11.125c2.332,-2.8828 5.3164,-4.3281 8.9531,-4.3281c2.0312,0 3.8281,0.41406 5.3906,1.2344c1.5703,0.8125 3.0078,2.0742 4.3125,3.7812l0,0.001zm-6.2188,19.062c2.0195,0 3.5625,-0.73438 4.625,-2.2031s1.5938,-3.6094 1.5938,-6.4219c0,-2.8008 -0.53125,-4.9375 -1.5938,-6.4062s-2.6055,-2.2031 -4.625,-2.2031c-1.9922,0 -3.5156,0.73438 -4.5781,2.2031s-1.5938,3.6055 -1.5938,6.4062c0,2.8125 0.53125,4.9531 1.5938,6.4219s2.5859,2.2031 4.5781,2.2031z" id="svg_6"/>
  </symbol>
  <symbol stroke="null" style="vector-effect: non-scaling-stroke;" id="e" overflow="visible">
   <path stroke="null" style="vector-effect: non-scaling-stroke;" d="m20.188,-6.0781c2.0195,0 3.5547,-0.73438 4.6094,-2.2031c1.0625,-1.4688 1.5938,-3.6094 1.5938,-6.4219c0,-2.8008 -0.53125,-4.9375 -1.5938,-6.4062c-1.0547,-1.4688 -2.5898,-2.2031 -4.6094,-2.2031c-2.0117,0 -3.5586,0.74219 -4.6406,2.2188c-1.0742,1.4805 -1.6094,3.6094 -1.6094,6.3906c0,2.793 0.53516,4.9297 1.6094,6.4062c1.082,1.4805 2.6289,2.2188 4.6406,2.2188l0,-0.0001zm-6.25,-19.062c1.2891,-1.707 2.7227,-2.9688 4.2969,-3.7812c1.582,-0.82031 3.3984,-1.2344 5.4531,-1.2344c3.625,0 6.6016,1.4453 8.9375,4.3281c2.332,2.8867 3.5,6.5938 3.5,11.125c0,4.543 -1.168,8.2578 -3.5,11.141c-2.3359,2.8867 -5.3125,4.3281 -8.9375,4.3281c-2.0547,0 -3.8711,-0.40625 -5.4531,-1.2188c-1.5742,-0.82031 -3.0078,-2.0938 -4.2969,-3.8125l0,4.2656l-9.4219,0l0,-40.906l9.4219,0l0,15.7651z" id="svg_7"/>
  </symbol>
  <symbol stroke="null" style="vector-effect: non-scaling-stroke;" id="d" overflow="visible">
   <path stroke="null" style="vector-effect: non-scaling-stroke;" d="m0.65625,-29.453l9.4062,0l7.9219,19.984l6.7344,-19.984l9.4062,0l-12.375,32.234c-1.25,3.2812 -2.7031,5.5703 -4.3594,6.875c-1.6562,1.3125 -3.8438,1.9688 -6.5625,1.9688l-5.4375,0l0,-6.1875l2.9375,0c1.6016,0 2.7656,-0.25781 3.4844,-0.76562c0.72656,-0.5 1.2969,-1.4062 1.7031,-2.7188l0.26562,-0.82812l-13.12492,-30.57776z" id="svg_8"/>
  </symbol>
  <symbol stroke="null" style="vector-effect: non-scaling-stroke;" id="c" overflow="visible">
   <path stroke="null" style="vector-effect: non-scaling-stroke;" d="m32.266,-38.016l0,8.3125c-2.1562,-0.96875 -4.2617,-1.6953 -6.3125,-2.1875c-2.0547,-0.48828 -3.9922,-0.73438 -5.8125,-0.73438c-2.418,0 -4.2031,0.33594 -5.3594,1c-1.1562,0.66797 -1.7344,1.6992 -1.7344,3.0938c0,1.0547 0.38281,1.875 1.1562,2.4688c0.78125,0.58594 2.1953,1.0859 4.25,1.5l4.3125,0.875c4.3633,0.875 7.4609,2.2109 9.2969,4c1.8438,1.7812 2.7656,4.3242 2.7656,7.625c0,4.3242 -1.2891,7.543 -3.8594,9.6562c-2.5625,2.1172 -6.4805,3.1719 -11.75,3.1719c-2.4922,0 -4.9922,-0.24219 -7.5,-0.71875c-2.5,-0.46875 -5.0078,-1.1641 -7.5156,-2.0938l0,-8.5469c2.5078,1.3359 4.9297,2.3398 7.2656,3.0156c2.3438,0.66797 4.6016,1 6.7812,1c2.207,0 3.8945,-0.36328 5.0625,-1.0938c1.1758,-0.73828 1.7656,-1.7891 1.7656,-3.1562c0,-1.2266 -0.40234,-2.1758 -1.2031,-2.8438c-0.79297,-0.66406 -2.3828,-1.2578 -4.7656,-1.7812l-3.9062,-0.875c-3.9297,-0.84375 -6.8047,-2.1797 -8.625,-4.0156c-1.8125,-1.8438 -2.7188,-4.3281 -2.7188,-7.4531c0,-3.9062 1.2578,-6.9102 3.7812,-9.0156c2.5312,-2.1016 6.1602,-3.1562 10.891,-3.1562c2.1562,0 4.375,0.16797 6.6562,0.5c2.2812,0.32422 4.6406,0.80859 7.0781,1.4531l-0.0001,-0.00007z" id="svg_9"/>
  </symbol>
  <symbol stroke="null" style="vector-effect: non-scaling-stroke;" id="b" overflow="visible">
   <path stroke="null" style="vector-effect: non-scaling-stroke;" d="m4.5156,-29.453l9.4219,0l0,29.453l-9.4219,0l0,-29.453zm0,-11.453l9.4219,0l0,7.6719l-9.4219,0l0,-7.6719z" id="svg_10"/>
  </symbol>
  <symbol stroke="null" style="vector-effect: non-scaling-stroke;" id="m" overflow="visible">
   <path stroke="null" style="vector-effect: non-scaling-stroke;" d="m4.5156,-40.906l9.4219,0l0,40.906l-9.4219,0l0,-40.906z" id="svg_11"/>
  </symbol>
  <symbol stroke="null" style="vector-effect: non-scaling-stroke;" id="l" overflow="visible">
   <path stroke="null" style="vector-effect: non-scaling-stroke;" d="m0.8125,-29.453l9.4219,0l7.3281,20.359l7.3125,-20.359l9.4375,0l-11.594,29.453l-10.328,0l-11.578,-29.453z" id="svg_12"/>
  </symbol>
  <symbol stroke="null" style="vector-effect: non-scaling-stroke;" id="k" overflow="visible">
   <path stroke="null" style="vector-effect: non-scaling-stroke;" d="m4.2031,-11.469l0,-17.984l9.4688,0l0,2.9531c0,1.5938 -0.01172,3.6016 -0.03125,6.0156c-0.01172,2.4062 -0.01562,4.0117 -0.01562,4.8125c0,2.3672 0.05468,4.0742 0.17188,5.125c0.125,1.043 0.33594,1.7969 0.64062,2.2656c0.38281,0.61719 0.88281,1.0898 1.5,1.4219c0.625,0.33594 1.3438,0.5 2.15619,0.5c1.957,0 3.4922,-0.75391 4.60941,-2.2656c1.125,-1.5078 1.6875,-3.6016 1.6875,-6.2812l0,-14.547l9.4219,0l0,29.453l-9.4219,0l0,-4.2656c-1.418,1.7188 -2.918,2.9922 -4.5,3.8125c-1.5859,0.8125 -3.3359,1.2188 -5.25,1.2188c-3.39841,0 -5.98441,-1.0391 -7.76561,-3.125c-1.7812,-2.0938 -2.67189,-5.1289 -2.67189,-9.1094l-0.00003,-0.0002z" id="svg_13"/>
  </symbol>
  <symbol stroke="null" style="vector-effect: non-scaling-stroke;" id="j" overflow="visible">
   <path stroke="null" style="vector-effect: non-scaling-stroke;" d="m22.875,-32.625c-3.0859,0 -5.4805,1.1406 -7.1875,3.4219c-1.6992,2.2734 -2.5469,5.4766 -2.5469,9.6094c0,4.125 0.84766,7.3281 2.5469,9.6094c1.707,2.2734 4.1016,3.4062 7.1875,3.4062c3.1016,0 5.5039,-1.1328 7.2031,-3.4062c1.6953,-2.2812 2.5469,-5.4844 2.5469,-9.6094c0,-4.1328 -0.85156,-7.3359 -2.5469,-9.6094c-1.6992,-2.2812 -4.1016,-3.4219 -7.2031,-3.4219zm0,-7.3438c6.3125,0 11.254,1.8086 14.828,5.4219c3.5703,3.6172 5.3594,8.6016 5.3594,14.953c0,6.3555 -1.7891,11.34 -5.3594,14.953c-3.5742,3.6055 -8.5156,5.4062 -14.828,5.4062c-6.293,0 -11.23,-1.8008 -14.812,-5.4062c-3.5859,-3.6133 -5.375,-8.5977 -5.375,-14.953c0,-6.3516 1.7891,-11.336 5.375,-14.953c3.582,-3.6133 8.5195,-5.4219 14.812,-5.4219z" id="svg_14"/>
  </symbol>
 </defs>
 <g stroke="null">
  <title stroke="null">Layer 1</title>
  <rect stroke="null" id="svg_33" height="719.99998" width="785" y="-16.6" x="-38.5" opacity="NaN" stroke-width="0" fill="#ffdd77"/>
  <path stroke="#000" fill="none" stroke-width="0" id="svg_35" d="m336.26336,265.62862c2.66666,0 5.33334,0 22.66669,0c13.33334,0 48.00003,0 84.00006,0l16.00003,0l13.33334,0"/>
  <g stroke="null" opacity="0.8" id="svg_15">
   <path stroke="null" d="m236.50023,511.32585c0,36.25463 -43.95251,64.83704 -97.23707,64.83704c-53.30631,0 -97.26316,-28.57887 -97.26316,-64.83704c0,-36.23077 43.97751,-64.83704 97.26316,-64.83704c6.03806,0 14.36495,0.86633 24.98404,2.5921c3.16768,0.51428 6.2546,-1.15627 6.88724,-3.73459c0.07643,-0.30719 0.11465,-0.61782 0.11465,-0.93192l0,-241.66219c0,-12.13878 9.44347,-22.94951 23.54047,-26.94953l280.98344,-79.7335c12.20722,-3.46536 25.55798,1.77063 29.82127,11.69345c0.84498,1.9674 1.2866,4.03483 1.30779,6.11958l3.35019,338.1857c0,36.2511 -43.97316,64.83704 -97.26316,64.83704c-53.28565,0 -97.23707,-28.58241 -97.23707,-64.83704c0,-36.22724 43.97316,-64.83704 97.23707,-64.83704c6.03806,0 14.3693,0.86288 24.98838,2.58866c3.16768,0.51773 6.2546,-1.15627 6.88724,-3.73114c0.07643,-0.31064 0.11465,-0.62818 0.11465,-0.94571l-0.50105,-138.768c-0.02123,-5.25321 -5.27802,-9.50214 -11.74089,-9.488c-1.19746,0.00345 -2.38209,0.15532 -3.52009,0.4487l-179.7494,46.56084c-9.81708,2.54377 -16.43681,10.00579 -16.30093,18.37958l3.33323,209.05007l0,-0.00002z" fill-rule="evenodd" id="svg_16" fill="#ffffff"/>
   <use stroke="null" x="61.81662" y="626.03435" xlink:href="#n" id="svg_17" transform="matrix(1.08702 0 0 0.883591 -27.1954 171.695)" fill="#ffffff"/>
   <use stroke="null" x="101.33225" y="626.03435" xlink:href="#i" id="svg_18" transform="matrix(1.08702 0 0 0.883591 -27.1954 171.695)" fill="#ffffff"/>
   <use stroke="null" x="127.89084" y="626.03435" xlink:href="#a" id="svg_19" transform="matrix(1.08702 0 0 0.883591 -27.1954 171.695)" fill="#ffffff"/>
   <use stroke="null" x="164.41037" y="626.03435" xlink:href="#h" id="svg_20" transform="matrix(1.08702 0 0 0.883591 -27.1954 171.695)" fill="#ffffff"/>
   <use stroke="null" x="200.7424" y="626.03435" xlink:href="#g" id="svg_21" transform="matrix(1.08702 0 0 0.883591 -27.1954 171.695)" fill="#ffffff"/>
   <use stroke="null" x="226.48459" y="626.03435" xlink:href="#a" id="svg_22" transform="matrix(1.08702 0 0 0.883591 -27.1954 171.695)" fill="#ffffff"/>
   <use stroke="null" x="263.00412" y="626.03435" xlink:href="#f" id="svg_23" transform="matrix(1.08702 0 0 0.883591 -27.1954 171.695)" fill="#ffffff"/>
   <use stroke="null" x="320.29319" y="626.03435" xlink:href="#e" id="svg_24" transform="matrix(1.08702 0 0 0.883591 -27.1954 171.695)" fill="#ffffff"/>
   <use stroke="null" x="358.84006" y="626.03435" xlink:href="#d" id="svg_25" transform="matrix(1.08702 0 0 0.883591 -27.1954 171.695)" fill="#ffffff"/>
   <use stroke="null" x="412.68381" y="626.03435" xlink:href="#c" id="svg_26" transform="matrix(1.08702 0 0 0.883591 -27.1954 171.695)" fill="#ffffff"/>
   <use stroke="null" x="451.46506" y="626.03435" xlink:href="#b" id="svg_27" transform="matrix(1.08702 0 0 0.883591 -27.1954 171.695)" fill="#ffffff"/>
   <use stroke="null" x="469.92209" y="626.03435" xlink:href="#m" id="svg_28" transform="matrix(1.08702 0 0 0.883591 -27.1954 171.695)" fill="#ffffff"/>
   <use stroke="null" x="488.37912" y="626.03435" xlink:href="#l" id="svg_29" transform="matrix(1.08702 0 0 0.883591 -27.1954 171.695)" fill="#ffffff"/>
   <use stroke="null" x="523.48069" y="626.03435" xlink:href="#b" id="svg_30" transform="matrix(1.08702 0 0 0.883591 -27.1954 171.695)" fill="#ffffff"/>
   <use stroke="null" x="541.93772" y="626.03435" xlink:href="#k" id="svg_31" transform="matrix(1.08702 0 0 0.883591 -27.1954 171.695)" fill="#ffffff"/>
   <use stroke="null" x="599.01584" y="626.03435" xlink:href="#j" id="svg_32" transform="matrix(1.08702 0 0 0.883591 -27.1954 171.695)" fill="#ffffff"/>
  </g>
 </g>
</svg>