<svg width="100" height="100" xmlns="http://www.w3.org/2000/svg" xml:space="preserve" version="1.1">

 <g>
  <title>Layer 1</title>
  <g id="svg_1">
   <path id="svg_2" d="m19.7,84l60.7,0c3.7,0 6.7,-3 6.7,-6.7l0,-34.7c0,-2.3 -1.2,-4.4 -3,-5.6l-7.5,-5.2l0,-2.2c0,-3.1 -2.5,-5.6 -5.6,-5.6l-5.7,0c0,0 -0.1,-0.1 -0.1,-0.1l-11.5,-8c-2.2,-1.4 -4.9,-1.4 -7.2,0.1l-11.1,7.7c-0.2,0.1 -0.3,0.2 -0.4,0.4l-5.8,0c-3.1,0 -5.6,2.5 -5.6,5.6l0,2.2l-7.4,5.1c-2,1.2 -3.1,3.3 -3.1,5.6l0,34.8c-0.1,3.6 2.9,6.6 6.6,6.6zm1.6,-4l27.7,-23.4c0.5,-0.5 1.3,-0.5 1.9,0l27.8,23.4l-57.4,0zm55.2,-43.3l5.3,3.6c0.7,0.4 1.1,1.1 1.2,1.8l-6.4,5.4l0,-10.8l-0.1,0zm6.5,10.6l0,30c0,0.3 -0.1,0.6 -0.2,0.9l-18.2,-15.3l18.4,-15.6zm-34.4,-28c0.9,-0.5 2,-0.5 2.8,-0.1l6.9,4.8l-16.6,0l6.9,-4.7zm-21.1,10.3c0,-0.9 0.7,-1.6 1.6,-1.6l41.8,0c0.9,0 1.6,0.7 1.6,1.6l0,21.4l-11,9.3l-7.9,-6.7c-2,-1.7 -5,-1.7 -7.1,0l-7.9,6.7l-11,-9.3l0,-21.4l-0.1,0zm-9.2,10.7l5.2,-3.6l0,10.9l-6.4,-5.4c0.1,-0.8 0.5,-1.5 1.2,-1.9zm-1.3,7l18.4,15.5l-18.2,15.5c-0.1,-0.3 -0.2,-0.6 -0.2,-1l0,-30z"/>
   <path id="svg_3" d="m37,39l26,0c1.1,0 2,-0.9 2,-2s-0.9,-2 -2,-2l-26,0c-1.1,0 -2,0.9 -2,2s0.9,2 2,2z"/>
   <path id="svg_4" d="m65,46c0,-1.1 -0.9,-2 -2,-2l-26,0c-1.1,0 -2,0.9 -2,2s0.9,2 2,2l26,0c1.1,0 2,-0.9 2,-2z"/>
  </g>
  <text id="svg_5" font-family="'Helvetica Neue', Helvetica, Arial-Unicode, Arial, Sans-serif" font-weight="bold" font-size="5px" fill="#000000" y="115" x="0">Created by Icon Depot</text>
  <text id="svg_6" font-family="'Helvetica Neue', Helvetica, Arial-Unicode, Arial, Sans-serif" font-weight="bold" font-size="5px" fill="#000000" y="120" x="0">from the Noun Project</text>
 </g>
</svg>